Latin-Mizra-Regular.ufo
<glyph name="dollar" format="1">
  <advance width="451"/>
  <unicode hex="0024"/>
  <outline>
    <contour>
      <point x="239" y="-86"/>
      <point x="250" y="-85"/>
      <point x="261" y="-82" type="curve"/>
      <point x="258" y="-64"/>
      <point x="256" y="-33"/>
      <point x="254" y="11" type="curve"/>
      <point x="362" y="20"/>
      <point x="415" y="69"/>
      <point x="415" y="148" type="curve" smooth="yes"/>
      <point x="415" y="302"/>
      <point x="144" y="297"/>
      <point x="144" y="402" type="curve" smooth="yes"/>
      <point x="144" y="435"/>
      <point x="178" y="456"/>
      <point x="201" y="460" type="curve"/>
      <point x="241" y="460"/>
      <point x="307" y="428"/>
      <point x="362" y="388" type="curve"/>
      <point x="378" y="411"/>
      <point x="392" y="458"/>
      <point x="392" y="489" type="curve"/>
      <point x="354" y="504"/>
      <point x="307" y="512"/>
      <point x="255" y="513" type="curve"/>
      <point x="255" y="550"/>
      <point x="256" y="582"/>
      <point x="258" y="608" type="curve"/>
      <point x="247" y="612"/>
      <point x="234" y="614"/>
      <point x="224" y="614" type="curve" smooth="yes"/>
      <point x="213" y="614"/>
      <point x="200" y="611"/>
      <point x="191" y="608" type="curve"/>
      <point x="194" y="589"/>
      <point x="196" y="557"/>
      <point x="197" y="510" type="curve"/>
      <point x="101" y="499"/>
      <point x="42" y="452"/>
      <point x="42" y="389" type="curve" smooth="yes"/>
      <point x="42" y="233"/>
      <point x="314" y="232"/>
      <point x="314" y="134" type="curve" smooth="yes"/>
      <point x="314" y="92"/>
      <point x="276" y="67"/>
      <point x="206" y="67" type="curve" smooth="yes"/>
      <point x="143" y="67"/>
      <point x="85" y="86"/>
      <point x="53" y="118" type="curve"/>
      <point x="41" y="95"/>
      <point x="36" y="75"/>
      <point x="36" y="45" type="curve"/>
      <point x="78" y="25"/>
      <point x="133" y="11"/>
      <point x="196" y="9" type="curve"/>
      <point x="196" y="-26"/>
      <point x="195" y="-57"/>
      <point x="194" y="-82" type="curve"/>
      <point x="207" y="-85"/>
      <point x="218" y="-86"/>
      <point x="228" y="-86" type="curve" smooth="yes"/>
    </contour>
    <contour>
      <point x="216" y="527" type="move" name="top"/>
    </contour>
    <contour>
      <point x="216" y="0" type="move" name="bottom"/>
    </contour>
  </outline>
</glyph>
<glyph name="ampersand" format="1">
  <advance width="545"/>
  <unicode hex="0026"/>
  <outline>
    <contour>
      <point x="257" y="-11"/>
      <point x="310" y="15"/>
      <point x="350" y="54" type="curve"/>
      <point x="407" y="-6" type="line"/>
      <point x="462" y="-6"/>
      <point x="499" y="0"/>
      <point x="535" y="15" type="curve"/>
      <point x="496" y="43"/>
      <point x="452" y="84"/>
      <point x="409" y="129" type="curve"/>
      <point x="444" y="185"/>
      <point x="471" y="247"/>
      <point x="504" y="294" type="curve"/>
      <point x="468" y="294"/>
      <point x="442" y="292"/>
      <point x="406" y="288" type="curve"/>
      <point x="403" y="246"/>
      <point x="393" y="203"/>
      <point x="376" y="165" type="curve"/>
      <point x="288" y="262"/>
      <point x="213" y="368"/>
      <point x="213" y="407" type="curve" smooth="yes"/>
      <point x="213" y="455"/>
      <point x="247" y="487"/>
      <point x="299" y="487" type="curve"/>
      <point x="350" y="469"/>
      <point x="387" y="443"/>
      <point x="426" y="398" type="curve"/>
      <point x="442" y="421"/>
      <point x="456" y="468"/>
      <point x="456" y="499" type="curve"/>
      <point x="416" y="521"/>
      <point x="366" y="533"/>
      <point x="310" y="533" type="curve" smooth="yes"/>
      <point x="197" y="533"/>
      <point x="117" y="477"/>
      <point x="117" y="398" type="curve" smooth="yes"/>
      <point x="117" y="364"/>
      <point x="130" y="327"/>
      <point x="165" y="276" type="curve"/>
      <point x="80" y="246"/>
      <point x="30" y="188"/>
      <point x="30" y="118" type="curve" smooth="yes"/>
      <point x="30" y="41"/>
      <point x="92" y="-11"/>
      <point x="183" y="-11" type="curve" smooth="yes"/>
    </contour>
    <contour>
      <point x="170" y="41"/>
      <point x="132" y="77"/>
      <point x="132" y="130" type="curve" smooth="yes"/>
      <point x="132" y="178"/>
      <point x="152" y="217"/>
      <point x="188" y="243" type="curve"/>
      <point x="220" y="200"/>
      <point x="263" y="149"/>
      <point x="322" y="84" type="curve"/>
      <point x="295" y="58"/>
      <point x="263" y="41"/>
      <point x="226" y="41" type="curve" smooth="yes"/>
    </contour>
  </outline>
</glyph>
<glyph name="quotesingle" format="1">
  <advance width="155"/>
  <unicode hex="0027"/>
  <outline>
    <contour>
      <point x="113" y="317" type="line"/>
      <point x="113" y="407"/>
      <point x="114" y="473"/>
      <point x="125" y="549" type="curve"/>
      <point x="92" y="549"/>
      <point x="68" y="545"/>
      <point x="40" y="537" type="curve"/>
      <point x="40" y="374" type="line"/>
      <point x="58" y="357"/>
      <point x="76" y="339"/>
      <point x="93" y="317" type="curve"/>
    </contour>
  </outline>
</glyph>
<glyph name="parenleft" format="1">
  <advance width="321"/>
  <unicode hex="0028"/>
  <outline>
    <contour>
      <point x="309" y="-104"/>
      <point x="311" y="-90"/>
      <point x="311" y="-77" type="curve" smooth="yes"/>
      <point x="311" y="-61"/>
      <point x="309" y="-46"/>
      <point x="306" y="-30" type="curve"/>
      <point x="264" y="-36"/>
      <point x="229" y="-39"/>
      <point x="200" y="-39" type="curve"/>
      <point x="169" y="-29"/>
      <point x="154" y="118"/>
      <point x="154" y="264" type="curve" smooth="yes"/>
      <point x="154" y="411"/>
      <point x="169" y="557"/>
      <point x="200" y="567" type="curve"/>
      <point x="229" y="567"/>
      <point x="264" y="564"/>
      <point x="306" y="558" type="curve"/>
      <point x="309" y="574"/>
      <point x="311" y="589"/>
      <point x="311" y="605" type="curve" smooth="yes"/>
      <point x="311" y="618"/>
      <point x="309" y="632"/>
      <point x="306" y="647" type="curve"/>
      <point x="136" y="647"/>
      <point x="50" y="506"/>
      <point x="50" y="264" type="curve" smooth="yes"/>
      <point x="50" y="23"/>
      <point x="136" y="-119"/>
      <point x="306" y="-119" type="curve"/>
    </contour>
  </outline>
</glyph>
<glyph name="asterisk" format="1">
  <advance width="405"/>
  <unicode hex="002A"/>
  <outline>
    <contour>
      <point x="211" y="285"/>
      <point x="237" y="290"/>
      <point x="269" y="298" type="curve"/>
      <point x="270" y="340"/>
      <point x="254" y="385"/>
      <point x="222" y="428" type="curve"/>
      <point x="276" y="429"/>
      <point x="318" y="425"/>
      <point x="361" y="416" type="curve"/>
      <point x="361" y="450"/>
      <point x="355" y="479"/>
      <point x="348" y="509" type="curve"/>
      <point x="304" y="510"/>
      <point x="261" y="495"/>
      <point x="217" y="463" type="curve"/>
      <point x="217" y="514"/>
      <point x="219" y="556"/>
      <point x="230" y="601" type="curve"/>
      <point x="192" y="601"/>
      <point x="166" y="596"/>
      <point x="134" y="587" type="curve"/>
      <point x="133" y="543"/>
      <point x="149" y="500"/>
      <point x="182" y="458" type="curve"/>
      <point x="130" y="457"/>
      <point x="89" y="460"/>
      <point x="44" y="470" type="curve"/>
      <point x="44" y="433"/>
      <point x="49" y="407"/>
      <point x="58" y="375" type="curve"/>
      <point x="100" y="374"/>
      <point x="144" y="390"/>
      <point x="187" y="422" type="curve"/>
      <point x="188" y="368"/>
      <point x="184" y="328"/>
      <point x="175" y="285" type="curve"/>
    </contour>
  </outline>
</glyph>
<glyph name="comma" format="1">
  <advance width="211"/>
  <unicode hex="002C"/>
  <outline>
    <contour>
      <point x="113" y="-63"/>
      <point x="154" y="10"/>
      <point x="161" y="89" type="curve"/>
      <point x="136" y="115" type="line"/>
      <point x="109" y="115"/>
      <point x="70" y="104"/>
      <point x="46" y="89" type="curve"/>
      <point x="57" y="64"/>
      <point x="63" y="34"/>
      <point x="63" y="0" type="curve" smooth="yes"/>
      <point x="63" y="-38"/>
      <point x="51" y="-77"/>
      <point x="30" y="-104" type="curve"/>
      <point x="44" y="-119" type="line"/>
    </contour>
  </outline>
</glyph>
<glyph name="one" format="1">
  <advance width="341"/>
  <unicode hex="0031"/>
  <outline>
    <contour>
      <point x="242" y="-6"/>
      <point x="262" y="-4"/>
      <point x="281" y="0" type="curve"/>
      <point x="270" y="30"/>
      <point x="265" y="107"/>
      <point x="265" y="227" type="curve" smooth="yes"/>
      <point x="265" y="331"/>
      <point x="270" y="461"/>
      <point x="276" y="527" type="curve"/>
      <point x="253" y="531"/>
      <point x="233" y="533"/>
      <point x="215" y="533" type="curve"/>
      <point x="198" y="516"/>
      <point x="151" y="481"/>
      <point x="108" y="456" type="curve" smooth="yes"/>
      <point x="77" y="438"/>
      <point x="45" y="421"/>
      <point x="10" y="404" type="curve"/>
      <point x="17" y="375"/>
      <point x="28" y="351"/>
      <point x="46" y="328" type="curve"/>
      <point x="171" y="407" type="line"/>
      <point x="173" y="376"/>
      <point x="173" y="341"/>
      <point x="173" y="300" type="curve" smooth="yes"/>
      <point x="173" y="196"/>
      <point x="168" y="66"/>
      <point x="162" y="0" type="curve"/>
      <point x="185" y="-4"/>
      <point x="205" y="-6"/>
      <point x="223" y="-6" type="curve" smooth="yes"/>
    </contour>
  </outline>
</glyph>
<glyph name="two" format="1">
  <advance width="506"/>
  <unicode hex="0032"/>
  <outline>
    <contour>
      <point x="452" y="12"/>
      <point x="461" y="63"/>
      <point x="461" y="103" type="curve"/>
      <point x="422" y="87"/>
      <point x="354" y="77"/>
      <point x="287" y="77" type="curve" smooth="yes"/>
      <point x="246" y="77"/>
      <point x="198" y="80"/>
      <point x="168" y="85" type="curve"/>
      <point x="349" y="227"/>
      <point x="430" y="330"/>
      <point x="430" y="412" type="curve" smooth="yes"/>
      <point x="430" y="491"/>
      <point x="366" y="534"/>
      <point x="247" y="534" type="curve" smooth="yes"/>
      <point x="176" y="534"/>
      <point x="91" y="519"/>
      <point x="58" y="499" type="curve"/>
      <point x="58" y="468"/>
      <point x="72" y="421"/>
      <point x="88" y="398" type="curve"/>
      <point x="150" y="443"/>
      <point x="216" y="475"/>
      <point x="255" y="480" type="curve"/>
      <point x="302" y="472"/>
      <point x="326" y="445"/>
      <point x="326" y="401" type="curve" smooth="yes"/>
      <point x="326" y="311"/>
      <point x="233" y="193"/>
      <point x="45" y="38" type="curve"/>
      <point x="45" y="0" type="line"/>
      <point x="141" y="5"/>
      <point x="400" y="2"/>
      <point x="440" y="-5" type="curve"/>
    </contour>
  </outline>
</glyph>
<glyph name="three" format="1">
  <advance width="489"/>
  <unicode hex="0033"/>
  <outline>
    <contour>
      <point x="370" y="-11"/>
      <point x="449" y="46"/>
      <point x="449" y="153" type="curve" smooth="yes"/>
      <point x="449" y="239"/>
      <point x="380" y="301"/>
      <point x="281" y="305" type="curve"/>
      <point x="366" y="372" type="line" smooth="yes"/>
      <point x="418" y="413"/>
      <point x="436" y="440"/>
      <point x="436" y="478" type="curve" smooth="yes"/>
      <point x="436" y="507"/>
      <point x="422" y="533"/>
      <point x="398" y="546" type="curve"/>
      <point x="362" y="524"/>
      <point x="312" y="516"/>
      <point x="208" y="516" type="curve" smooth="yes"/>
      <point x="141" y="516"/>
      <point x="88" y="520"/>
      <point x="63" y="527" type="curve"/>
      <point x="63" y="494"/>
      <point x="71" y="450"/>
      <point x="83" y="419" type="curve"/>
      <point x="106" y="432"/>
      <point x="133" y="437"/>
      <point x="182" y="437" type="curve" smooth="yes"/>
      <point x="293" y="437"/>
      <point x="356" y="436"/>
      <point x="368" y="434" type="curve"/>
      <point x="179" y="285" type="line" smooth="yes"/>
      <point x="164" y="273"/>
      <point x="150" y="258"/>
      <point x="143" y="242" type="curve"/>
      <point x="143" y="234"/>
      <point x="164" y="220"/>
      <point x="177" y="220" type="curve"/>
      <point x="192" y="248"/>
      <point x="226" y="266"/>
      <point x="262" y="266" type="curve"/>
      <point x="316" y="247"/>
      <point x="347" y="206"/>
      <point x="347" y="153" type="curve" smooth="yes"/>
      <point x="347" y="86"/>
      <point x="298" y="47"/>
      <point x="215" y="47" type="curve" smooth="yes"/>
      <point x="150" y="47"/>
      <point x="90" y="70"/>
      <point x="57" y="108" type="curve"/>
      <point x="45" y="75"/>
      <point x="40" y="55"/>
      <point x="40" y="35" type="curve"/>
      <point x="90" y="5"/>
      <point x="153" y="-11"/>
      <point x="221" y="-11" type="curve" smooth="yes"/>
    </contour>
  </outline>
</glyph>
<glyph name="four" format="1">
  <advance width="484"/>
  <unicode hex="0034"/>
  <outline>
    <contour>
      <point x="361" y="-6"/>
      <point x="381" y="-4"/>
      <point x="400" y="0" type="curve"/>
      <point x="390" y="17"/>
      <point x="385" y="57"/>
      <point x="384" y="119" type="curve"/>
      <point x="434" y="113" type="line"/>
      <point x="446" y="141"/>
      <point x="454" y="181"/>
      <point x="454" y="211" type="curve"/>
      <point x="437" y="204"/>
      <point x="415" y="199"/>
      <point x="385" y="196" type="curve"/>
      <point x="386" y="252"/>
      <point x="390" y="309"/>
      <point x="395" y="342" type="curve"/>
      <point x="372" y="346"/>
      <point x="352" y="348"/>
      <point x="334" y="348" type="curve" smooth="yes"/>
      <point x="315" y="348"/>
      <point x="295" y="346"/>
      <point x="276" y="342" type="curve"/>
      <point x="286" y="324"/>
      <point x="292" y="275"/>
      <point x="292" y="193" type="curve"/>
      <point x="227" y="193"/>
      <point x="159" y="194"/>
      <point x="103" y="195" type="curve"/>
      <point x="207" y="363"/>
      <point x="303" y="470"/>
      <point x="355" y="515" type="curve"/>
      <point x="321" y="539"/>
      <point x="285" y="546"/>
      <point x="239" y="546" type="curve"/>
      <point x="193" y="475"/>
      <point x="72" y="273"/>
      <point x="49" y="233" type="curve" smooth="yes"/>
      <point x="29" y="197"/>
      <point x="20" y="175"/>
      <point x="20" y="144" type="curve" smooth="yes"/>
      <point x="20" y="128"/>
      <point x="27" y="113"/>
      <point x="42" y="104" type="curve"/>
      <point x="82" y="120"/>
      <point x="137" y="123"/>
      <point x="232" y="123" type="curve" smooth="yes"/>
      <point x="290" y="123" type="line"/>
      <point x="289" y="75"/>
      <point x="285" y="29"/>
      <point x="281" y="0" type="curve"/>
      <point x="304" y="-4"/>
      <point x="324" y="-6"/>
      <point x="342" y="-6" type="curve" smooth="yes"/>
    </contour>
  </outline>
</glyph>
<glyph name="five" format="1">
  <advance width="479"/>
  <unicode hex="0035"/>
  <outline>
    <contour>
      <point x="363" y="-11"/>
      <point x="440" y="48"/>
      <point x="440" y="158" type="curve" smooth="yes"/>
      <point x="440" y="256"/>
      <point x="369" y="325"/>
      <point x="266" y="325" type="curve" smooth="yes"/>
      <point x="215" y="325"/>
      <point x="169" y="311"/>
      <point x="127" y="284" type="curve"/>
      <point x="138" y="434" type="line"/>
      <point x="220" y="436"/>
      <point x="248" y="437"/>
      <point x="292" y="437" type="curve" smooth="yes"/>
      <point x="349" y="437"/>
      <point x="377" y="432"/>
      <point x="399" y="419" type="curve"/>
      <point x="411" y="450"/>
      <point x="419" y="494"/>
      <point x="419" y="527" type="curve"/>
      <point x="389" y="520"/>
      <point x="318" y="516"/>
      <point x="237" y="516" type="curve" smooth="yes"/>
      <point x="164" y="516"/>
      <point x="125" y="519"/>
      <point x="97" y="527" type="curve"/>
      <point x="77" y="241" type="line"/>
      <point x="77" y="237"/>
      <point x="100" y="229"/>
      <point x="123" y="225" type="curve"/>
      <point x="173" y="257"/>
      <point x="223" y="276"/>
      <point x="256" y="276" type="curve"/>
      <point x="310" y="251"/>
      <point x="338" y="211"/>
      <point x="338" y="158" type="curve" smooth="yes"/>
      <point x="338" y="87"/>
      <point x="290" y="47"/>
      <point x="210" y="47" type="curve" smooth="yes"/>
      <point x="147" y="47"/>
      <point x="89" y="70"/>
      <point x="57" y="108" type="curve"/>
      <point x="45" y="83"/>
      <point x="40" y="63"/>
      <point x="40" y="35" type="curve"/>
      <point x="89" y="5"/>
      <point x="151" y="-11"/>
      <point x="217" y="-11" type="curve" smooth="yes"/>
    </contour>
  </outline>
</glyph>
<glyph name="six" format="1">
  <advance width="503"/>
  <unicode hex="0036"/>
  <outline>
    <contour>
      <point x="374" y="-9"/>
      <point x="463" y="64"/>
      <point x="463" y="168" type="curve" smooth="yes"/>
      <point x="463" y="268"/>
      <point x="392" y="335"/>
      <point x="287" y="335" type="curve" smooth="yes"/>
      <point x="237" y="335"/>
      <point x="190" y="320"/>
      <point x="146" y="291" type="curve"/>
      <point x="158" y="392"/>
      <point x="199" y="458"/>
      <point x="263" y="479" type="curve"/>
      <point x="294" y="479"/>
      <point x="354" y="448"/>
      <point x="401" y="408" type="curve"/>
      <point x="417" y="431"/>
      <point x="431" y="478"/>
      <point x="431" y="509" type="curve"/>
      <point x="398" y="525"/>
      <point x="357" y="533"/>
      <point x="310" y="533" type="curve" smooth="yes"/>
      <point x="133" y="533"/>
      <point x="40" y="426"/>
      <point x="40" y="223" type="curve" smooth="yes"/>
      <point x="40" y="84"/>
      <point x="123" y="-9"/>
      <point x="247" y="-9" type="curve" smooth="yes"/>
    </contour>
    <contour>
      <point x="183" y="47"/>
      <point x="142" y="111"/>
      <point x="142" y="221" type="curve" smooth="yes"/>
      <point x="142" y="231" type="line"/>
      <point x="169" y="252"/>
      <point x="202" y="267"/>
      <point x="237" y="277" type="curve"/>
      <point x="313" y="277"/>
      <point x="361" y="236"/>
      <point x="361" y="171" type="curve" smooth="yes"/>
      <point x="361" y="96"/>
      <point x="319" y="47"/>
      <point x="254" y="47" type="curve" smooth="yes"/>
    </contour>
  </outline>
</glyph>
<glyph name="seven" format="1">
  <advance width="454"/>
  <unicode hex="0037"/>
  <outline>
    <contour>
      <point x="231" y="91"/>
      <point x="366" y="353"/>
      <point x="395" y="407" type="curve" smooth="yes"/>
      <point x="414" y="443"/>
      <point x="424" y="465"/>
      <point x="424" y="496" type="curve" smooth="yes"/>
      <point x="424" y="516"/>
      <point x="414" y="535"/>
      <point x="392" y="546" type="curve"/>
      <point x="354" y="522"/>
      <point x="302" y="516"/>
      <point x="222" y="516" type="curve" smooth="yes"/>
      <point x="142" y="516"/>
      <point x="66" y="520"/>
      <point x="30" y="527" type="curve"/>
      <point x="30" y="494"/>
      <point x="38" y="450"/>
      <point x="50" y="419" type="curve"/>
      <point x="71" y="431"/>
      <point x="98" y="437"/>
      <point x="147" y="437" type="curve" smooth="yes"/>
      <point x="212" y="437"/>
      <point x="280" y="436"/>
      <point x="339" y="435" type="curve"/>
      <point x="228" y="220"/>
      <point x="121" y="84"/>
      <point x="69" y="25" type="curve"/>
      <point x="103" y="1"/>
      <point x="139" y="-6"/>
      <point x="185" y="-6" type="curve"/>
    </contour>
  </outline>
</glyph>
<glyph name="nine" format="1">
  <advance width="493"/>
  <unicode hex="0039"/>
  <outline>
    <contour>
      <point x="368" y="-11"/>
      <point x="453" y="90"/>
      <point x="453" y="281" type="curve" smooth="yes"/>
      <point x="453" y="432"/>
      <point x="367" y="533"/>
      <point x="239" y="533" type="curve" smooth="yes"/>
      <point x="122" y="533"/>
      <point x="40" y="456"/>
      <point x="40" y="346" type="curve" smooth="yes"/>
      <point x="40" y="240"/>
      <point x="107" y="169"/>
      <point x="206" y="169" type="curve" smooth="yes"/>
      <point x="256" y="169"/>
      <point x="305" y="185"/>
      <point x="349" y="214" type="curve"/>
      <point x="340" y="120"/>
      <point x="295" y="47"/>
      <point x="200" y="47" type="curve" smooth="yes"/>
      <point x="141" y="47"/>
      <point x="87" y="70"/>
      <point x="57" y="108" type="curve"/>
      <point x="45" y="83"/>
      <point x="40" y="63"/>
      <point x="40" y="35" type="curve"/>
      <point x="86" y="5"/>
      <point x="145" y="-11"/>
      <point x="207" y="-11" type="curve" smooth="yes"/>
    </contour>
    <contour>
      <point x="186" y="227"/>
      <point x="142" y="276"/>
      <point x="142" y="353" type="curve" smooth="yes"/>
      <point x="142" y="422"/>
      <point x="180" y="467"/>
      <point x="239" y="467" type="curve" smooth="yes"/>
      <point x="306" y="467"/>
      <point x="347" y="396"/>
      <point x="351" y="273" type="curve"/>
      <point x="323" y="252"/>
      <point x="291" y="237"/>
      <point x="256" y="227" type="curve"/>
    </contour>
  </outline>
</glyph>
<glyph name="question" format="1">
  <advance width="383"/>
  <unicode hex="003F"/>
  <outline>
    <contour>
      <point x="245" y="220"/>
      <point x="343" y="283"/>
      <point x="343" y="388" type="curve" smooth="yes"/>
      <point x="343" y="491"/>
      <point x="284" y="547"/>
      <point x="172" y="547" type="curve" smooth="yes"/>
      <point x="115" y="547"/>
      <point x="65" y="531"/>
      <point x="20" y="501" type="curve"/>
      <point x="20" y="473"/>
      <point x="24" y="453"/>
      <point x="34" y="428" type="curve"/>
      <point x="60" y="466"/>
      <point x="103" y="489"/>
      <point x="150" y="489" type="curve" smooth="yes"/>
      <point x="207" y="489"/>
      <point x="241" y="453"/>
      <point x="241" y="388" type="curve" smooth="yes"/>
      <point x="241" y="328"/>
      <point x="205" y="279"/>
      <point x="137" y="253" type="curve"/>
      <point x="154" y="210" type="line"/>
    </contour>
    <contour>
      <point x="192" y="8"/>
      <point x="216" y="32"/>
      <point x="239" y="60" type="curve"/>
      <point x="211" y="83"/>
      <point x="187" y="107"/>
      <point x="164" y="135" type="curve"/>
      <point x="136" y="112"/>
      <point x="112" y="88"/>
      <point x="89" y="60" type="curve"/>
      <point x="117" y="37"/>
      <point x="141" y="13"/>
      <point x="164" y="-15" type="curve"/>
    </contour>
  </outline>
</glyph>
<glyph name="at" format="1">
  <advance width="829"/>
  <unicode hex="0040"/>
  <outline>
    <contour>
      <point x="428" y="-124"/>
      <point x="472" y="-113"/>
      <point x="508" y="-94" type="curve"/>
      <point x="508" y="-75"/>
      <point x="504" y="-61"/>
      <point x="492" y="-44" type="curve"/>
      <point x="468" y="-62"/>
      <point x="424" y="-73"/>
      <point x="382" y="-73" type="curve" smooth="yes"/>
      <point x="218" y="-73"/>
      <point x="128" y="50"/>
      <point x="128" y="214" type="curve" smooth="yes"/>
      <point x="128" y="386"/>
      <point x="257" y="510"/>
      <point x="438" y="510" type="curve"/>
      <point x="604" y="485"/>
      <point x="702" y="370"/>
      <point x="702" y="206" type="curve" smooth="yes"/>
      <point x="702" y="93"/>
      <point x="653" y="45"/>
      <point x="615" y="45" type="curve" smooth="yes"/>
      <point x="581" y="45"/>
      <point x="554" y="62"/>
      <point x="554" y="131" type="curve" smooth="yes"/>
      <point x="554" y="180"/>
      <point x="563" y="235"/>
      <point x="563" y="293" type="curve" smooth="yes"/>
      <point x="563" y="364"/>
      <point x="517" y="403"/>
      <point x="437" y="403" type="curve" smooth="yes"/>
      <point x="377" y="403"/>
      <point x="316" y="370"/>
      <point x="282" y="321" type="curve"/>
      <point x="290" y="290" type="line"/>
      <point x="320" y="313"/>
      <point x="361" y="327"/>
      <point x="399" y="327" type="curve" smooth="yes"/>
      <point x="453" y="327"/>
      <point x="475" y="302"/>
      <point x="475" y="241" type="curve"/>
      <point x="335" y="234"/>
      <point x="265" y="196"/>
      <point x="265" y="126" type="curve" smooth="yes"/>
      <point x="265" y="81"/>
      <point x="297" y="49"/>
      <point x="345" y="49" type="curve" smooth="yes"/>
      <point x="383" y="49"/>
      <point x="431" y="66"/>
      <point x="473" y="92" type="curve"/>
      <point x="487" y="21"/>
      <point x="541" y="-8"/>
      <point x="597" y="-8" type="curve" smooth="yes"/>
      <point x="679" y="-8"/>
      <point x="774" y="66"/>
      <point x="774" y="251" type="curve" smooth="yes"/>
      <point x="774" y="458"/>
      <point x="640" y="595"/>
      <point x="439" y="595" type="curve" smooth="yes"/>
      <point x="214" y="595"/>
      <point x="55" y="438"/>
      <point x="55" y="212" type="curve" smooth="yes"/>
      <point x="55" y="11"/>
      <point x="185" y="-124"/>
      <point x="379" y="-124" type="curve" smooth="yes"/>
    </contour>
    <contour>
      <point x="370" y="105"/>
      <point x="358" y="124"/>
      <point x="358" y="142" type="curve" smooth="yes"/>
      <point x="358" y="182"/>
      <point x="400" y="206"/>
      <point x="474" y="210" type="curve"/>
      <point x="470" y="179"/>
      <point x="469" y="151"/>
      <point x="469" y="127" type="curve"/>
      <point x="444" y="111"/>
      <point x="412" y="99"/>
      <point x="386" y="96" type="curve"/>
    </contour>
  </outline>
</glyph>
<glyph name="C" format="1">
  <advance width="490"/>
  <unicode hex="0043"/>
  <outline>
    <contour>
      <point x="346" y="-11"/>
      <point x="426" y="25"/>
      <point x="470" y="78" type="curve"/>
      <point x="462" y="109" type="line"/>
      <point x="421" y="85"/>
      <point x="363" y="72"/>
      <point x="301" y="72" type="curve" smooth="yes"/>
      <point x="209" y="72"/>
      <point x="142" y="130"/>
      <point x="142" y="269" type="curve" smooth="yes"/>
      <point x="142" y="366"/>
      <point x="197" y="462"/>
      <point x="263" y="479" type="curve"/>
      <point x="299" y="479"/>
      <point x="371" y="448"/>
      <point x="426" y="408" type="curve"/>
      <point x="442" y="431"/>
      <point x="456" y="478"/>
      <point x="456" y="509" type="curve"/>
      <point x="416" y="525"/>
      <point x="366" y="533"/>
      <point x="310" y="533" type="curve" smooth="yes"/>
      <point x="151" y="533"/>
      <point x="40" y="413"/>
      <point x="40" y="241" type="curve" smooth="yes"/>
      <point x="40" y="79"/>
      <point x="122" y="-11"/>
      <point x="270" y="-11" type="curve" smooth="yes"/>
    </contour>
    <contour>
      <point x="265" y="527" type="move" name="top"/>
    </contour>
    <contour>
      <point x="245" y="0" type="move" name="bottom"/>
    </contour>
  </outline>
</glyph>
<glyph name="F" format="1">
  <advance width="431"/>
  <unicode hex="0046"/>
  <outline>
    <contour>
      <point x="145" y="-6"/>
      <point x="165" y="-4"/>
      <point x="184" y="0" type="curve"/>
      <point x="173" y="29"/>
      <point x="168" y="106"/>
      <point x="168" y="232" type="curve"/>
      <point x="221" y="235"/>
      <point x="300" y="230"/>
      <point x="359" y="226" type="curve"/>
      <point x="361" y="239"/>
      <point x="363" y="254"/>
      <point x="363" y="266" type="curve" smooth="yes"/>
      <point x="363" y="279"/>
      <point x="361" y="293"/>
      <point x="359" y="305" type="curve"/>
      <point x="325" y="298"/>
      <point x="301" y="294"/>
      <point x="237" y="294" type="curve" smooth="yes"/>
      <point x="216" y="294"/>
      <point x="191" y="295"/>
      <point x="169" y="296" type="curve"/>
      <point x="170" y="346"/>
      <point x="172" y="397"/>
      <point x="174" y="440" type="curve"/>
      <point x="201" y="445"/>
      <point x="236" y="448"/>
      <point x="268" y="448" type="curve" smooth="yes"/>
      <point x="312" y="448"/>
      <point x="360" y="439"/>
      <point x="390" y="421" type="curve"/>
      <point x="403" y="438"/>
      <point x="411" y="492"/>
      <point x="411" y="527" type="curve"/>
      <point x="363" y="522"/>
      <point x="292" y="520"/>
      <point x="223" y="520" type="curve" smooth="yes"/>
      <point x="160" y="520"/>
      <point x="98" y="522"/>
      <point x="60" y="527" type="curve"/>
      <point x="72" y="477"/>
      <point x="76" y="403"/>
      <point x="76" y="270" type="curve" smooth="yes"/>
      <point x="76" y="176"/>
      <point x="71" y="59"/>
      <point x="65" y="0" type="curve"/>
      <point x="88" y="-4"/>
      <point x="108" y="-6"/>
      <point x="126" y="-6" type="curve" smooth="yes"/>
    </contour>
  </outline>
</glyph>
<glyph name="G" format="1">
  <advance width="531"/>
  <unicode hex="0047"/>
  <outline>
    <contour>
      <point x="346" y="-11"/>
      <point x="426" y="17"/>
      <point x="470" y="58" type="curve"/>
      <point x="471" y="137"/>
      <point x="475" y="219"/>
      <point x="480" y="265" type="curve"/>
      <point x="457" y="269"/>
      <point x="437" y="271"/>
      <point x="419" y="271" type="curve" smooth="yes"/>
      <point x="402" y="271"/>
      <point x="383" y="269"/>
      <point x="366" y="265" type="curve"/>
      <point x="377" y="239"/>
      <point x="382" y="174"/>
      <point x="382" y="71" type="curve"/>
      <point x="360" y="65"/>
      <point x="336" y="62"/>
      <point x="311" y="62" type="curve" smooth="yes"/>
      <point x="191" y="62"/>
      <point x="142" y="123"/>
      <point x="142" y="269" type="curve" smooth="yes"/>
      <point x="142" y="366"/>
      <point x="197" y="462"/>
      <point x="263" y="479" type="curve"/>
      <point x="302" y="479"/>
      <point x="377" y="448"/>
      <point x="436" y="408" type="curve"/>
      <point x="452" y="431"/>
      <point x="466" y="478"/>
      <point x="466" y="509" type="curve"/>
      <point x="424" y="525"/>
      <point x="370" y="533"/>
      <point x="310" y="533" type="curve" smooth="yes"/>
      <point x="151" y="533"/>
      <point x="40" y="413"/>
      <point x="40" y="241" type="curve" smooth="yes"/>
      <point x="40" y="79"/>
      <point x="122" y="-11"/>
      <point x="270" y="-11" type="curve" smooth="yes"/>
    </contour>
    <contour>
      <point x="286" y="527" type="move" name="top"/>
    </contour>
    <contour>
      <point x="266" y="0" type="move" name="bottom"/>
    </contour>
  </outline>
</glyph>
<glyph name="H" format="1">
  <advance width="554"/>
  <unicode hex="0048"/>
  <outline>
    <contour>
      <point x="145" y="-6"/>
      <point x="165" y="-4"/>
      <point x="184" y="0" type="curve"/>
      <point x="174" y="29"/>
      <point x="168" y="105"/>
      <point x="168" y="231" type="curve"/>
      <point x="192" y="232"/>
      <point x="223" y="233"/>
      <point x="259" y="233" type="curve" smooth="yes"/>
      <point x="299" y="233"/>
      <point x="345" y="232"/>
      <point x="385" y="230" type="curve"/>
      <point x="384" y="143"/>
      <point x="380" y="51"/>
      <point x="375" y="0" type="curve"/>
      <point x="398" y="-4"/>
      <point x="418" y="-6"/>
      <point x="436" y="-6" type="curve" smooth="yes"/>
      <point x="455" y="-6"/>
      <point x="475" y="-4"/>
      <point x="494" y="0" type="curve"/>
      <point x="483" y="30"/>
      <point x="478" y="107"/>
      <point x="478" y="227" type="curve" smooth="yes"/>
      <point x="478" y="331"/>
      <point x="483" y="461"/>
      <point x="489" y="527" type="curve"/>
      <point x="466" y="531"/>
      <point x="446" y="533"/>
      <point x="428" y="533" type="curve" smooth="yes"/>
      <point x="409" y="533"/>
      <point x="389" y="531"/>
      <point x="370" y="527" type="curve"/>
      <point x="380" y="498"/>
      <point x="386" y="422"/>
      <point x="386" y="296" type="curve"/>
      <point x="364" y="295"/>
      <point x="338" y="294"/>
      <point x="307" y="294" type="curve" smooth="yes"/>
      <point x="263" y="294"/>
      <point x="211" y="295"/>
      <point x="169" y="298" type="curve"/>
      <point x="170" y="384"/>
      <point x="174" y="475"/>
      <point x="179" y="527" type="curve"/>
      <point x="156" y="531"/>
      <point x="136" y="533"/>
      <point x="118" y="533" type="curve" smooth="yes"/>
      <point x="99" y="533"/>
      <point x="79" y="531"/>
      <point x="60" y="527" type="curve"/>
      <point x="71" y="497"/>
      <point x="76" y="420"/>
      <point x="76" y="300" type="curve" smooth="yes"/>
      <point x="76" y="196"/>
      <point x="71" y="66"/>
      <point x="65" y="0" type="curve"/>
      <point x="88" y="-4"/>
      <point x="108" y="-6"/>
      <point x="126" y="-6" type="curve" smooth="yes"/>
    </contour>
    <contour>
      <point x="277" y="414" type="move" name="center"/>
    </contour>
    <contour>
      <point x="277" y="527" type="move" name="top"/>
    </contour>
    <contour>
      <point x="20" y="527" type="move" name="topleft"/>
    </contour>
    <contour>
      <point x="277" y="0" type="move" name="bottom"/>
    </contour>
  </outline>
</glyph>
<glyph name="L" format="1">
  <advance width="415"/>
  <unicode hex="004C"/>
  <outline>
    <contour>
      <point x="104" y="2"/>
      <point x="150" y="4"/>
      <point x="228" y="4" type="curve" smooth="yes"/>
      <point x="288" y="4"/>
      <point x="345" y="1"/>
      <point x="384" y="-3" type="curve"/>
      <point x="395" y="12"/>
      <point x="405" y="62"/>
      <point x="405" y="103" type="curve"/>
      <point x="373" y="87"/>
      <point x="321" y="76"/>
      <point x="273" y="76" type="curve" smooth="yes"/>
      <point x="239" y="76"/>
      <point x="201" y="79"/>
      <point x="172" y="85" type="curve"/>
      <point x="169" y="116"/>
      <point x="168" y="158"/>
      <point x="168" y="227" type="curve" smooth="yes"/>
      <point x="168" y="325"/>
      <point x="173" y="457"/>
      <point x="179" y="527" type="curve"/>
      <point x="156" y="531"/>
      <point x="136" y="533"/>
      <point x="118" y="533" type="curve" smooth="yes"/>
      <point x="99" y="533"/>
      <point x="79" y="531"/>
      <point x="60" y="527" type="curve"/>
      <point x="71" y="498"/>
      <point x="76" y="425"/>
      <point x="76" y="300" type="curve" smooth="yes"/>
      <point x="76" y="183"/>
      <point x="75" y="148"/>
      <point x="65" y="-3" type="curve"/>
    </contour>
    <contour>
      <point x="136" y="264" type="move" name="center"/>
    </contour>
    <contour>
      <point x="118" y="527" type="move" name="top"/>
    </contour>
    <contour>
      <point x="295" y="407" type="move" name="topright"/>
    </contour>
    <contour>
      <point x="208" y="0" type="move" name="bottom"/>
    </contour>
  </outline>
</glyph>
<glyph name="M" format="1">
  <advance width="713"/>
  <unicode hex="004D"/>
  <outline>
    <contour>
      <point x="119" y="-6"/>
      <point x="133" y="-4"/>
      <point x="146" y="0" type="curve"/>
      <point x="139" y="30"/>
      <point x="135" y="107"/>
      <point x="135" y="227" type="curve" smooth="yes"/>
      <point x="135" y="276"/>
      <point x="136" y="330"/>
      <point x="137" y="380" type="curve"/>
      <point x="200" y="251"/>
      <point x="278" y="77"/>
      <point x="311" y="0" type="curve"/>
      <point x="318" y="-3"/>
      <point x="325" y="-5"/>
      <point x="332" y="-5" type="curve" smooth="yes"/>
      <point x="340" y="-5"/>
      <point x="347" y="-3"/>
      <point x="355" y="0" type="curve"/>
      <point x="391" y="83"/>
      <point x="478" y="277"/>
      <point x="543" y="408" type="curve"/>
      <point x="544" y="377"/>
      <point x="545" y="341"/>
      <point x="545" y="300" type="curve" smooth="yes"/>
      <point x="545" y="196"/>
      <point x="540" y="66"/>
      <point x="534" y="0" type="curve"/>
      <point x="557" y="-4"/>
      <point x="577" y="-6"/>
      <point x="595" y="-6" type="curve" smooth="yes"/>
      <point x="614" y="-6"/>
      <point x="634" y="-4"/>
      <point x="653" y="0" type="curve"/>
      <point x="642" y="30"/>
      <point x="637" y="107"/>
      <point x="637" y="227" type="curve" smooth="yes"/>
      <point x="637" y="331"/>
      <point x="642" y="461"/>
      <point x="648" y="527" type="curve"/>
      <point x="625" y="531"/>
      <point x="605" y="533"/>
      <point x="587" y="533" type="curve" smooth="yes"/>
      <point x="563" y="533"/>
      <point x="543" y="531"/>
      <point x="529" y="527" type="curve"/>
      <point x="495" y="448"/>
      <point x="410" y="258"/>
      <point x="353" y="143" type="curve"/>
      <point x="300" y="249"/>
      <point x="211" y="447"/>
      <point x="177" y="527" type="curve"/>
      <point x="153" y="531"/>
      <point x="133" y="533"/>
      <point x="116" y="533" type="curve" smooth="yes"/>
      <point x="97" y="533"/>
      <point x="78" y="531"/>
      <point x="60" y="527" type="curve"/>
      <point x="69" y="491"/>
      <point x="72" y="428"/>
      <point x="72" y="300" type="curve" smooth="yes"/>
      <point x="72" y="196"/>
      <point x="69" y="66"/>
      <point x="64" y="0" type="curve"/>
      <point x="80" y="-4"/>
      <point x="94" y="-6"/>
      <point x="106" y="-6" type="curve" smooth="yes"/>
    </contour>
  </outline>
</glyph>
<glyph name="O" format="1">
  <advance width="611"/>
  <unicode hex="004F"/>
  <outline>
    <contour>
      <point x="451" y="-13"/>
      <point x="571" y="105"/>
      <point x="571" y="272" type="curve" smooth="yes"/>
      <point x="571" y="430"/>
      <point x="472" y="535"/>
      <point x="324" y="535" type="curve" smooth="yes"/>
      <point x="157" y="535"/>
      <point x="40" y="415"/>
      <point x="40" y="244" type="curve" smooth="yes"/>
      <point x="40" y="90"/>
      <point x="136" y="-13"/>
      <point x="279" y="-13" type="curve" smooth="yes"/>
    </contour>
    <contour>
      <point x="206" y="42"/>
      <point x="142" y="123"/>
      <point x="142" y="245" type="curve" smooth="yes"/>
      <point x="142" y="361"/>
      <point x="216" y="446"/>
      <point x="319" y="446" type="curve"/>
      <point x="413" y="428"/>
      <point x="469" y="350"/>
      <point x="469" y="239" type="curve" smooth="yes"/>
      <point x="469" y="118"/>
      <point x="404" y="42"/>
      <point x="302" y="42" type="curve" smooth="yes"/>
    </contour>
    <contour>
      <point x="305" y="264" type="move" name="center"/>
    </contour>
    <contour>
      <point x="550" y="10" type="move" name="ogonek"/>
    </contour>
    <contour>
      <point x="305" y="527" type="move" name="top"/>
    </contour>
    <contour>
      <point x="591" y="527" type="move" name="topright"/>
    </contour>
    <contour>
      <point x="20" y="527" type="move" name="topleft"/>
    </contour>
    <contour>
      <point x="305" y="0" type="move" name="bottom"/>
    </contour>
  </outline>
</glyph>
<glyph name="P" format="1">
  <advance width="484"/>
  <unicode hex="0050"/>
  <outline>
    <contour>
      <point x="145" y="-6"/>
      <point x="165" y="-4"/>
      <point x="184" y="0" type="curve"/>
      <point x="175" y="25"/>
      <point x="170" y="81"/>
      <point x="169" y="166" type="curve"/>
      <point x="190" y="162"/>
      <point x="214" y="160"/>
      <point x="238" y="160" type="curve" smooth="yes"/>
      <point x="368" y="160"/>
      <point x="458" y="240"/>
      <point x="458" y="356" type="curve" smooth="yes"/>
      <point x="458" y="469"/>
      <point x="383" y="532"/>
      <point x="248" y="532" type="curve" smooth="yes"/>
      <point x="177" y="532"/>
      <point x="101" y="521"/>
      <point x="60" y="505" type="curve"/>
      <point x="71" y="478"/>
      <point x="76" y="408"/>
      <point x="76" y="300" type="curve" smooth="yes"/>
      <point x="76" y="196"/>
      <point x="71" y="66"/>
      <point x="65" y="0" type="curve"/>
      <point x="88" y="-4"/>
      <point x="108" y="-6"/>
      <point x="126" y="-6" type="curve" smooth="yes"/>
    </contour>
    <contour>
      <point x="250" y="214"/>
      <point x="210" y="223"/>
      <point x="168" y="236" type="curve"/>
      <point x="168" y="310"/>
      <point x="171" y="395"/>
      <point x="175" y="457" type="curve"/>
      <point x="192" y="462"/>
      <point x="209" y="464"/>
      <point x="227" y="464" type="curve" smooth="yes"/>
      <point x="309" y="464"/>
      <point x="356" y="429"/>
      <point x="356" y="348" type="curve" smooth="yes"/>
      <point x="356" y="286"/>
      <point x="320" y="234"/>
      <point x="275" y="214" type="curve"/>
    </contour>
    <contour>
      <point x="244" y="527" type="move" name="top"/>
    </contour>
    <contour>
      <point x="244" y="0" type="move" name="bottom"/>
    </contour>
  </outline>
</glyph>
<glyph name="R" format="1">
  <advance width="505"/>
  <unicode hex="0052"/>
  <outline>
    <contour>
      <point x="145" y="-6"/>
      <point x="165" y="-4"/>
      <point x="184" y="0" type="curve"/>
      <point x="175" y="27"/>
      <point x="169" y="90"/>
      <point x="168" y="187" type="curve"/>
      <point x="191" y="182"/>
      <point x="241" y="178"/>
      <point x="261" y="181" type="curve"/>
      <point x="307" y="95"/>
      <point x="341" y="27"/>
      <point x="354" y="-6" type="curve"/>
      <point x="402" y="-6"/>
      <point x="440" y="-1"/>
      <point x="480" y="15" type="curve"/>
      <point x="444" y="44"/>
      <point x="400" y="119"/>
      <point x="357" y="204" type="curve"/>
      <point x="420" y="234"/>
      <point x="458" y="288"/>
      <point x="458" y="356" type="curve" smooth="yes"/>
      <point x="458" y="469"/>
      <point x="383" y="532"/>
      <point x="248" y="532" type="curve" smooth="yes"/>
      <point x="177" y="532"/>
      <point x="101" y="521"/>
      <point x="60" y="505" type="curve"/>
      <point x="71" y="478"/>
      <point x="76" y="408"/>
      <point x="76" y="300" type="curve" smooth="yes"/>
      <point x="76" y="206"/>
      <point x="71" y="66"/>
      <point x="65" y="0" type="curve"/>
      <point x="88" y="-4"/>
      <point x="108" y="-6"/>
      <point x="126" y="-6" type="curve" smooth="yes"/>
    </contour>
    <contour>
      <point x="250" y="234"/>
      <point x="209" y="244"/>
      <point x="168" y="258" type="curve"/>
      <point x="169" y="326"/>
      <point x="171" y="401"/>
      <point x="175" y="457" type="curve"/>
      <point x="192" y="462"/>
      <point x="209" y="464"/>
      <point x="227" y="464" type="curve" smooth="yes"/>
      <point x="309" y="464"/>
      <point x="356" y="429"/>
      <point x="356" y="348" type="curve" smooth="yes"/>
      <point x="356" y="295"/>
      <point x="320" y="254"/>
      <point x="275" y="234" type="curve"/>
    </contour>
    <contour>
      <point x="252" y="527" type="move" name="top"/>
    </contour>
    <contour>
      <point x="252" y="0" type="move" name="bottom"/>
    </contour>
  </outline>
</glyph>
<glyph name="V" format="1">
  <advance width="493"/>
  <unicode hex="0056"/>
  <outline>
    <contour>
      <point x="325" y="27" type="line"/>
      <point x="366" y="168"/>
      <point x="444" y="409"/>
      <point x="488" y="533" type="curve"/>
      <point x="452" y="533"/>
      <point x="425" y="530"/>
      <point x="395" y="522" type="curve"/>
      <point x="407" y="488"/>
      <point x="372" y="353"/>
      <point x="279" y="74" type="curve"/>
      <point x="260" y="106"/>
      <point x="236" y="163"/>
      <point x="203" y="260" type="curve" smooth="yes"/>
      <point x="175" y="350"/>
      <point x="144" y="471"/>
      <point x="134" y="533" type="curve"/>
      <point x="83" y="533"/>
      <point x="44" y="526"/>
      <point x="5" y="512" type="curve"/>
      <point x="127" y="277"/>
      <point x="145" y="-9"/>
      <point x="256" y="-9" type="curve"/>
    </contour>
    <contour>
      <point x="247" y="527" type="move" name="top"/>
    </contour>
    <contour>
      <point x="247" y="0" type="move" name="bottom"/>
    </contour>
  </outline>
</glyph>
<glyph name="W" format="1">
  <advance width="788"/>
  <unicode hex="0057"/>
  <outline>
    <contour>
      <point x="288" y="27" type="line"/>
      <point x="315" y="113"/>
      <point x="355" y="237"/>
      <point x="393" y="348" type="curve"/>
      <point x="452" y="162"/>
      <point x="476" y="-9"/>
      <point x="562" y="-9" type="curve"/>
      <point x="612" y="27" type="line"/>
      <point x="655" y="168"/>
      <point x="735" y="409"/>
      <point x="783" y="533" type="curve"/>
      <point x="747" y="533"/>
      <point x="720" y="530"/>
      <point x="690" y="522" type="curve"/>
      <point x="700" y="488"/>
      <point x="663" y="361"/>
      <point x="576" y="97" type="curve"/>
      <point x="561" y="131"/>
      <point x="542" y="183"/>
      <point x="518" y="260" type="curve"/>
      <point x="494" y="350"/>
      <point x="467" y="471"/>
      <point x="459" y="533" type="curve"/>
      <point x="418" y="533"/>
      <point x="371" y="527"/>
      <point x="329" y="512" type="curve"/>
      <point x="358" y="446" type="line"/>
      <point x="342" y="377"/>
      <point x="308" y="265"/>
      <point x="252" y="97" type="curve"/>
      <point x="237" y="131"/>
      <point x="218" y="183"/>
      <point x="194" y="260" type="curve" smooth="yes"/>
      <point x="169" y="350"/>
      <point x="142" y="471"/>
      <point x="135" y="533" type="curve"/>
      <point x="84" y="533"/>
      <point x="45" y="526"/>
      <point x="5" y="512" type="curve"/>
      <point x="119" y="277"/>
      <point x="127" y="-9"/>
      <point x="238" y="-9" type="curve"/>
    </contour>
    <contour>
      <point x="394" y="527" type="move" name="top"/>
    </contour>
    <contour>
      <point x="394" y="0" type="move" name="bottom"/>
    </contour>
  </outline>
</glyph>
<glyph name="Z" format="1">
  <advance width="445"/>
  <unicode hex="005A"/>
  <outline>
    <contour>
      <point x="413" y="16"/>
      <point x="421" y="70"/>
      <point x="421" y="103" type="curve"/>
      <point x="380" y="86"/>
      <point x="312" y="77"/>
      <point x="253" y="77" type="curve" smooth="yes"/>
      <point x="212" y="77"/>
      <point x="165" y="81"/>
      <point x="136" y="85" type="curve"/>
      <point x="212" y="190"/>
      <point x="378" y="405"/>
      <point x="409" y="450" type="curve" smooth="yes"/>
      <point x="419" y="464"/>
      <point x="425" y="480"/>
      <point x="425" y="496" type="curve" smooth="yes"/>
      <point x="425" y="516"/>
      <point x="415" y="535"/>
      <point x="393" y="546" type="curve"/>
      <point x="355" y="522"/>
      <point x="303" y="516"/>
      <point x="223" y="516" type="curve" smooth="yes"/>
      <point x="143" y="516"/>
      <point x="67" y="520"/>
      <point x="31" y="527" type="curve"/>
      <point x="31" y="494"/>
      <point x="39" y="450"/>
      <point x="51" y="419" type="curve"/>
      <point x="72" y="431"/>
      <point x="99" y="437"/>
      <point x="148" y="437" type="curve" smooth="yes"/>
      <point x="212" y="437"/>
      <point x="281" y="434"/>
      <point x="332" y="434" type="curve"/>
      <point x="200" y="250"/>
      <point x="78" y="95"/>
      <point x="20" y="38" type="curve"/>
      <point x="20" y="0" type="line"/>
      <point x="87" y="4"/>
      <point x="350" y="4"/>
      <point x="401" y="-5" type="curve"/>
    </contour>
    <contour>
      <point x="223" y="527" type="move" name="top"/>
    </contour>
    <contour>
      <point x="223" y="0" type="move" name="bottom"/>
    </contour>
  </outline>
</glyph>
<glyph name="asciicircum" format="1">
  <advance width="368"/>
  <unicode hex="005E"/>
  <outline>
    <contour>
      <point x="184" y="504" type="line"/>
      <point x="299" y="359" type="line"/>
      <point x="321" y="374"/>
      <point x="338" y="390"/>
      <point x="358" y="416" type="curve"/>
      <point x="301" y="473"/>
      <point x="255" y="521"/>
      <point x="196" y="596" type="curve"/>
      <point x="172" y="596" type="line"/>
      <point x="113" y="521"/>
      <point x="67" y="473"/>
      <point x="10" y="416" type="curve"/>
      <point x="30" y="390"/>
      <point x="47" y="374"/>
      <point x="69" y="359" type="curve"/>
    </contour>
  </outline>
</glyph>
<glyph name="a" format="1">
  <advance width="437"/>
  <unicode hex="0061"/>
  <outline>
    <contour>
      <point x="171" y="-11"/>
      <point x="226" y="10"/>
      <point x="273" y="43" type="curve"/>
      <point x="280" y="20"/>
      <point x="292" y="2"/>
      <point x="311" y="-11" type="curve"/>
      <point x="342" y="-7"/>
      <point x="373" y="7"/>
      <point x="397" y="27" type="curve"/>
      <point x="366" y="60"/>
      <point x="358" y="82"/>
      <point x="358" y="132" type="curve" smooth="yes"/>
      <point x="358" y="179"/>
      <point x="367" y="231"/>
      <point x="367" y="284" type="curve" smooth="yes"/>
      <point x="367" y="370"/>
      <point x="318" y="418"/>
      <point x="229" y="418" type="curve" smooth="yes"/>
      <point x="164" y="418"/>
      <point x="96" y="378"/>
      <point x="59" y="319" type="curve"/>
      <point x="67" y="293" type="line"/>
      <point x="101" y="316"/>
      <point x="146" y="330"/>
      <point x="188" y="330" type="curve" smooth="yes"/>
      <point x="254" y="330"/>
      <point x="275" y="300"/>
      <point x="275" y="220" type="curve"/>
      <point x="117" y="210"/>
      <point x="40" y="165"/>
      <point x="40" y="83" type="curve" smooth="yes"/>
      <point x="40" y="28"/>
      <point x="77" y="-11"/>
      <point x="127" y="-11" type="curve" smooth="yes"/>
    </contour>
    <contour>
      <point x="151" y="52"/>
      <point x="138" y="76"/>
      <point x="138" y="98" type="curve" smooth="yes"/>
      <point x="138" y="150"/>
      <point x="187" y="183"/>
      <point x="274" y="188" type="curve"/>
      <point x="272" y="148"/>
      <point x="268" y="123"/>
      <point x="268" y="87" type="curve" smooth="yes"/>
      <point x="268" y="81" type="line"/>
      <point x="240" y="60"/>
      <point x="202" y="43"/>
      <point x="170" y="40" type="curve"/>
    </contour>
    <contour>
      <point x="354" y="1" type="move" name="ogonek"/>
    </contour>
    <contour>
      <point x="218" y="0" type="move" name="bottom"/>
    </contour>
    <contour>
      <point x="218" y="407" type="move" name="top"/>
    </contour>
  </outline>
</glyph>
<glyph name="b" format="1">
  <advance width="482"/>
  <unicode hex="0062"/>
  <outline>
    <contour>
      <point x="372" y="-9"/>
      <point x="442" y="70"/>
      <point x="442" y="212" type="curve" smooth="yes"/>
      <point x="442" y="334"/>
      <point x="381" y="410"/>
      <point x="282" y="410" type="curve" smooth="yes"/>
      <point x="238" y="410"/>
      <point x="194" y="393"/>
      <point x="157" y="364" type="curve"/>
      <point x="159" y="437"/>
      <point x="163" y="510"/>
      <point x="167" y="547" type="curve"/>
      <point x="120" y="547"/>
      <point x="86" y="541"/>
      <point x="50" y="527" type="curve"/>
      <point x="62" y="488"/>
      <point x="67" y="427"/>
      <point x="67" y="333" type="curve" smooth="yes"/>
      <point x="67" y="248"/>
      <point x="64" y="74"/>
      <point x="58" y="5" type="curve"/>
      <point x="72" y="2"/>
      <point x="83" y="0"/>
      <point x="94" y="0" type="curve"/>
      <point x="119" y="41" type="line"/>
      <point x="147" y="11"/>
      <point x="192" y="-9"/>
      <point x="245" y="-9" type="curve" smooth="yes"/>
    </contour>
    <contour>
      <point x="207" y="44"/>
      <point x="182" y="55"/>
      <point x="161" y="76" type="curve"/>
      <point x="156" y="101"/>
      <point x="154" y="134"/>
      <point x="154" y="192" type="curve" smooth="yes"/>
      <point x="154" y="222"/>
      <point x="155" y="266"/>
      <point x="156" y="314" type="curve"/>
      <point x="187" y="330"/>
      <point x="223" y="339"/>
      <point x="255" y="339" type="curve"/>
      <point x="311" y="318"/>
      <point x="345" y="267"/>
      <point x="345" y="177" type="curve" smooth="yes"/>
      <point x="345" y="90"/>
      <point x="307" y="44"/>
      <point x="234" y="44" type="curve" smooth="yes"/>
    </contour>
    <contour>
      <point x="241" y="407" type="move" name="top"/>
    </contour>
    <contour>
      <point x="241" y="0" type="move" name="bottom"/>
    </contour>
  </outline>
</glyph>
<glyph name="c" format="1">
  <advance width="410"/>
  <unicode hex="0063"/>
  <outline>
    <contour>
      <point x="278" y="-11"/>
      <point x="347" y="25"/>
      <point x="385" y="78" type="curve"/>
      <point x="377" y="104" type="line"/>
      <point x="345" y="80"/>
      <point x="301" y="67"/>
      <point x="254" y="67" type="curve" smooth="yes"/>
      <point x="171" y="67"/>
      <point x="138" y="112"/>
      <point x="138" y="219" type="curve" smooth="yes"/>
      <point x="138" y="287"/>
      <point x="167" y="347"/>
      <point x="205" y="369" type="curve"/>
      <point x="237" y="369"/>
      <point x="287" y="344"/>
      <point x="340" y="298" type="curve"/>
      <point x="355" y="325"/>
      <point x="371" y="370"/>
      <point x="371" y="394" type="curve"/>
      <point x="328" y="415"/>
      <point x="283" y="418"/>
      <point x="253" y="418" type="curve" smooth="yes"/>
      <point x="127" y="418"/>
      <point x="40" y="325"/>
      <point x="40" y="191" type="curve" smooth="yes"/>
      <point x="40" y="61"/>
      <point x="102" y="-11"/>
      <point x="212" y="-11" type="curve" smooth="yes"/>
    </contour>
    <contour>
      <point x="215" y="407" type="move" name="top"/>
    </contour>
    <contour>
      <point x="205" y="0" type="move" name="bottom"/>
    </contour>
  </outline>
</glyph>
<glyph name="d" format="1">
  <advance width="500"/>
  <unicode hex="0064"/>
  <outline>
    <contour>
      <point x="255" y="-12"/>
      <point x="301" y="9"/>
      <point x="336" y="44" type="curve"/>
      <point x="343" y="21"/>
      <point x="355" y="3"/>
      <point x="374" y="-11" type="curve"/>
      <point x="405" y="-7"/>
      <point x="436" y="7"/>
      <point x="460" y="27" type="curve"/>
      <point x="429" y="60"/>
      <point x="421" y="82"/>
      <point x="421" y="132" type="curve" smooth="yes"/>
      <point x="421" y="324"/>
      <point x="426" y="475"/>
      <point x="433" y="547" type="curve"/>
      <point x="392" y="547"/>
      <point x="357" y="543"/>
      <point x="316" y="527" type="curve"/>
      <point x="325" y="493"/>
      <point x="331" y="445"/>
      <point x="334" y="379" type="curve"/>
      <point x="298" y="405"/>
      <point x="259" y="418"/>
      <point x="215" y="418" type="curve" smooth="yes"/>
      <point x="103" y="418"/>
      <point x="45" y="343"/>
      <point x="45" y="199" type="curve" smooth="yes"/>
      <point x="45" y="60"/>
      <point x="102" y="-12"/>
      <point x="210" y="-12" type="curve" smooth="yes"/>
    </contour>
    <contour>
      <point x="177" y="50"/>
      <point x="142" y="106"/>
      <point x="142" y="193" type="curve" smooth="yes"/>
      <point x="142" y="285"/>
      <point x="179" y="334"/>
      <point x="248" y="334" type="curve" smooth="yes"/>
      <point x="281" y="334"/>
      <point x="311" y="326"/>
      <point x="335" y="311" type="curve"/>
      <point x="335" y="229"/>
      <point x="331" y="151"/>
      <point x="331" y="83" type="curve"/>
      <point x="302" y="61"/>
      <point x="268" y="44"/>
      <point x="237" y="40" type="curve"/>
    </contour>
    <contour>
      <point x="359" y="470" type="move" name="center"/>
    </contour>
    <contour>
      <point x="257" y="407" type="move" name="top"/>
    </contour>
    <contour>
      <point x="528" y="407" type="move" name="topright"/>
    </contour>
    <contour>
      <point x="257" y="0" type="move" name="bottom"/>
    </contour>
  </outline>
</glyph>
<glyph name="e" format="1">
  <advance width="460"/>
  <unicode hex="0065"/>
  <outline>
    <contour>
      <point x="283" y="-11"/>
      <point x="359" y="25"/>
      <point x="400" y="78" type="curve"/>
      <point x="392" y="104" type="line"/>
      <point x="356" y="80"/>
      <point x="306" y="67"/>
      <point x="251" y="67" type="curve" smooth="yes"/>
      <point x="182" y="67"/>
      <point x="148" y="100"/>
      <point x="139" y="175" type="curve"/>
      <point x="239" y="178"/>
      <point x="346" y="192"/>
      <point x="415" y="209" type="curve"/>
      <point x="415" y="346"/>
      <point x="358" y="418"/>
      <point x="250" y="418" type="curve" smooth="yes"/>
      <point x="126" y="418"/>
      <point x="40" y="325"/>
      <point x="40" y="191" type="curve" smooth="yes"/>
      <point x="40" y="61"/>
      <point x="101" y="-11"/>
      <point x="210" y="-11" type="curve" smooth="yes"/>
    </contour>
    <contour>
      <point x="137" y="284"/>
      <point x="163" y="345"/>
      <point x="203" y="369" type="curve"/>
      <point x="262" y="369"/>
      <point x="304" y="319"/>
      <point x="305" y="251" type="curve"/>
      <point x="268" y="233"/>
      <point x="199" y="217"/>
      <point x="137" y="211" type="curve"/>
    </contour>
    <contour>
      <point x="311" y="12" type="move" name="ogonek"/>
    </contour>
    <contour>
      <point x="223" y="0" type="move" name="bottom"/>
    </contour>
    <contour>
      <point x="233" y="407" type="move" name="top"/>
    </contour>
  </outline>
</glyph>
<glyph name="f" format="1">
  <advance width="317"/>
  <unicode hex="0066"/>
  <outline>
    <contour>
      <point x="169" y="-78"/>
      <point x="195" y="-34"/>
      <point x="195" y="63" type="curve" smooth="yes"/>
      <point x="195" y="110"/>
      <point x="188" y="183"/>
      <point x="188" y="277" type="curve" smooth="yes"/>
      <point x="188" y="343" type="line"/>
      <point x="228" y="342"/>
      <point x="255" y="338"/>
      <point x="277" y="331" type="curve"/>
      <point x="289" y="356"/>
      <point x="294" y="376"/>
      <point x="294" y="404" type="curve"/>
      <point x="271" y="399"/>
      <point x="235" y="397"/>
      <point x="190" y="396" type="curve"/>
      <point x="193" y="488"/>
      <point x="202" y="520"/>
      <point x="223" y="536" type="curve"/>
      <point x="251" y="536"/>
      <point x="296" y="512"/>
      <point x="337" y="475" type="curve"/>
      <point x="353" y="503"/>
      <point x="367" y="549"/>
      <point x="367" y="571" type="curve"/>
      <point x="339" y="580"/>
      <point x="305" y="585"/>
      <point x="270" y="585" type="curve" smooth="yes"/>
      <point x="178" y="585"/>
      <point x="110" y="513"/>
      <point x="94" y="403" type="curve"/>
      <point x="76" y="390"/>
      <point x="57" y="379"/>
      <point x="35" y="368" type="curve"/>
      <point x="35" y="347"/>
      <point x="45" y="341"/>
      <point x="94" y="340" type="curve"/>
      <point x="110" y="-35"/>
      <point x="105" y="-76"/>
      <point x="50" y="-146" type="curve"/>
      <point x="64" y="-159" type="line"/>
    </contour>
    <contour>
      <point x="146" y="407" type="move" name="top"/>
    </contour>
    <contour>
      <point x="146" y="0" type="move" name="bottom"/>
    </contour>
  </outline>
</glyph>
<glyph name="g" format="1">
  <advance width="444"/>
  <unicode hex="0067"/>
  <outline>
    <contour>
      <point x="323" y="-180"/>
      <point x="413" y="-119"/>
      <point x="413" y="-38" type="curve" smooth="yes"/>
      <point x="413" y="21"/>
      <point x="373" y="55"/>
      <point x="299" y="61" type="curve" smooth="yes"/>
      <point x="111" y="71" type="line"/>
      <point x="111" y="100"/>
      <point x="147" y="119"/>
      <point x="204" y="119" type="curve" smooth="yes"/>
      <point x="311" y="119"/>
      <point x="387" y="184"/>
      <point x="387" y="277" type="curve" smooth="yes"/>
      <point x="387" y="305"/>
      <point x="380" y="330"/>
      <point x="368" y="351" type="curve"/>
      <point x="397" y="353"/>
      <point x="424" y="360"/>
      <point x="444" y="371" type="curve"/>
      <point x="444" y="391"/>
      <point x="432" y="429"/>
      <point x="418" y="454" type="curve"/>
      <point x="385" y="425"/>
      <point x="349" y="403"/>
      <point x="322" y="396" type="curve"/>
      <point x="297" y="410"/>
      <point x="267" y="418"/>
      <point x="232" y="418" type="curve" smooth="yes"/>
      <point x="127" y="418"/>
      <point x="54" y="353"/>
      <point x="54" y="260" type="curve" smooth="yes"/>
      <point x="54" y="204"/>
      <point x="80" y="160"/>
      <point x="125" y="137" type="curve"/>
      <point x="78" y="119"/>
      <point x="49" y="87"/>
      <point x="49" y="49" type="curve" smooth="yes"/>
      <point x="49" y="23"/>
      <point x="63" y="3"/>
      <point x="87" y="-6" type="curve"/>
      <point x="54" y="-42"/>
      <point x="35" y="-90"/>
      <point x="35" y="-137" type="curve"/>
      <point x="74" y="-164"/>
      <point x="131" y="-180"/>
      <point x="202" y="-180" type="curve" smooth="yes"/>
    </contour>
    <contour>
      <point x="176" y="-113"/>
      <point x="137" y="-96"/>
      <point x="112" y="-63" type="curve"/>
      <point x="116" y="-46"/>
      <point x="123" y="-28"/>
      <point x="131" y="-12" type="curve"/>
      <point x="279" y="-20" type="line" smooth="yes"/>
      <point x="325" y="-22"/>
      <point x="342" y="-32"/>
      <point x="342" y="-58" type="curve" smooth="yes"/>
      <point x="342" y="-91"/>
      <point x="296" y="-113"/>
      <point x="227" y="-113" type="curve" smooth="yes"/>
    </contour>
    <contour>
      <point x="170" y="164"/>
      <point x="137" y="197"/>
      <point x="137" y="248" type="curve" smooth="yes"/>
      <point x="137" y="301"/>
      <point x="175" y="339"/>
      <point x="227" y="339" type="curve"/>
      <point x="275" y="327"/>
      <point x="304" y="292"/>
      <point x="304" y="246" type="curve" smooth="yes"/>
      <point x="304" y="194"/>
      <point x="272" y="164"/>
      <point x="219" y="164" type="curve" smooth="yes"/>
    </contour>
    <contour>
      <point x="231" y="407" type="move" name="top"/>
    </contour>
    <contour>
      <point x="226" y="0" type="move" name="bottom"/>
    </contour>
  </outline>
</glyph>
<glyph name="l" format="1">
  <advance width="244"/>
  <unicode hex="006C"/>
  <outline>
    <contour>
      <point x="150" y="-9"/>
      <point x="180" y="0"/>
      <point x="204" y="27" type="curve"/>
      <point x="173" y="61"/>
      <point x="165" y="84"/>
      <point x="165" y="192" type="curve" smooth="yes"/>
      <point x="165" y="356"/>
      <point x="170" y="485"/>
      <point x="177" y="547" type="curve"/>
      <point x="136" y="547"/>
      <point x="101" y="543"/>
      <point x="60" y="527" type="curve"/>
      <point x="73" y="480"/>
      <point x="79" y="406"/>
      <point x="79" y="297" type="curve" smooth="yes"/>
      <point x="79" y="208"/>
      <point x="75" y="144"/>
      <point x="75" y="73" type="curve" smooth="yes"/>
      <point x="75" y="10"/>
      <point x="91" y="-9"/>
      <point x="132" y="-9" type="curve" smooth="yes"/>
    </contour>
    <contour>
      <point x="125" y="280" type="move" name="center"/>
    </contour>
    <contour>
      <point x="125" y="527" type="move" name="top"/>
    </contour>
    <contour>
      <point x="269" y="407" type="move" name="topright"/>
    </contour>
    <contour>
      <point x="125" y="0" type="move" name="bottom"/>
    </contour>
  </outline>
</glyph>
<glyph name="m" format="1">
  <advance width="761"/>
  <unicode hex="006D"/>
  <outline>
    <contour>
      <point x="172" y="-6"/>
      <point x="192" y="-4"/>
      <point x="211" y="0" type="curve"/>
      <point x="198" y="29"/>
      <point x="191" y="82"/>
      <point x="191" y="150" type="curve" smooth="yes"/>
      <point x="191" y="214"/>
      <point x="194" y="267"/>
      <point x="195" y="308" type="curve"/>
      <point x="218" y="323"/>
      <point x="244" y="330"/>
      <point x="276" y="330" type="curve" smooth="yes"/>
      <point x="324" y="330"/>
      <point x="344" y="308"/>
      <point x="344" y="255" type="curve" smooth="yes"/>
      <point x="344" y="165"/>
      <point x="341" y="67"/>
      <point x="337" y="0" type="curve"/>
      <point x="360" y="-4"/>
      <point x="380" y="-6"/>
      <point x="398" y="-6" type="curve" smooth="yes"/>
      <point x="417" y="-6"/>
      <point x="437" y="-4"/>
      <point x="456" y="0" type="curve"/>
      <point x="443" y="29"/>
      <point x="436" y="82"/>
      <point x="436" y="150" type="curve" smooth="yes"/>
      <point x="436" y="185"/>
      <point x="439" y="257"/>
      <point x="439" y="308" type="curve"/>
      <point x="462" y="323"/>
      <point x="489" y="330"/>
      <point x="521" y="330" type="curve" smooth="yes"/>
      <point x="569" y="330"/>
      <point x="589" y="308"/>
      <point x="589" y="255" type="curve" smooth="yes"/>
      <point x="589" y="165"/>
      <point x="586" y="67"/>
      <point x="582" y="0" type="curve"/>
      <point x="605" y="-4"/>
      <point x="625" y="-6"/>
      <point x="643" y="-6" type="curve" smooth="yes"/>
      <point x="662" y="-6"/>
      <point x="682" y="-4"/>
      <point x="701" y="0" type="curve"/>
      <point x="688" y="29"/>
      <point x="681" y="82"/>
      <point x="681" y="150" type="curve" smooth="yes"/>
      <point x="681" y="181"/>
      <point x="685" y="251"/>
      <point x="685" y="280" type="curve" smooth="yes"/>
      <point x="685" y="362"/>
      <point x="655" y="418"/>
      <point x="568" y="418" type="curve" smooth="yes"/>
      <point x="517" y="418"/>
      <point x="466" y="391"/>
      <point x="431" y="346" type="curve"/>
      <point x="417" y="391"/>
      <point x="384" y="418"/>
      <point x="323" y="418" type="curve" smooth="yes"/>
      <point x="276" y="418"/>
      <point x="228" y="394"/>
      <point x="193" y="355" type="curve"/>
      <point x="188" y="392"/>
      <point x="170" y="414"/>
      <point x="132" y="414" type="curve" smooth="yes"/>
      <point x="114" y="414"/>
      <point x="84" y="405"/>
      <point x="60" y="378" type="curve"/>
      <point x="91" y="344"/>
      <point x="99" y="321"/>
      <point x="99" y="213" type="curve" smooth="yes"/>
      <point x="99" y="139"/>
      <point x="96" y="57"/>
      <point x="92" y="0" type="curve"/>
      <point x="115" y="-4"/>
      <point x="135" y="-6"/>
      <point x="153" y="-6" type="curve" smooth="yes"/>
    </contour>
    <contour>
      <point x="382" y="407" type="move" name="top"/>
    </contour>
    <contour>
      <point x="382" y="0" type="move" name="bottom"/>
    </contour>
  </outline>
</glyph>
<glyph name="o" format="1">
  <advance width="493"/>
  <unicode hex="006F"/>
  <outline>
    <contour>
      <point x="359" y="-11"/>
      <point x="453" y="82"/>
      <point x="453" y="215" type="curve" smooth="yes"/>
      <point x="453" y="337"/>
      <point x="376" y="418"/>
      <point x="261" y="418" type="curve" smooth="yes"/>
      <point x="131" y="418"/>
      <point x="40" y="325"/>
      <point x="40" y="192" type="curve" smooth="yes"/>
      <point x="40" y="70"/>
      <point x="115" y="-11"/>
      <point x="226" y="-11" type="curve" smooth="yes"/>
    </contour>
    <contour>
      <point x="180" y="34"/>
      <point x="132" y="94"/>
      <point x="132" y="197" type="curve" smooth="yes"/>
      <point x="132" y="284"/>
      <point x="180" y="339"/>
      <point x="256" y="339" type="curve"/>
      <point x="322" y="318"/>
      <point x="361" y="256"/>
      <point x="361" y="177" type="curve" smooth="yes"/>
      <point x="361" y="87"/>
      <point x="318" y="34"/>
      <point x="244" y="34" type="curve" smooth="yes"/>
    </contour>
    <contour>
      <point x="247" y="204" type="move" name="center"/>
    </contour>
    <contour>
      <point x="444" y="10" type="move" name="ogonek"/>
    </contour>
    <contour>
      <point x="247" y="407" type="move" name="top"/>
    </contour>
    <contour>
      <point x="473" y="407" type="move" name="topright"/>
    </contour>
    <contour>
      <point x="247" y="0" type="move" name="bottom"/>
    </contour>
  </outline>
</glyph>
<glyph name="p" format="1">
  <advance width="515"/>
  <unicode hex="0070"/>
  <outline>
    <contour>
      <point x="123" y="-180"/>
      <point x="158" y="-174"/>
      <point x="194" y="-160" type="curve"/>
      <point x="185" y="-121"/>
      <point x="179" y="-67"/>
      <point x="177" y="8" type="curve"/>
      <point x="202" y="-4"/>
      <point x="230" y="-9"/>
      <point x="260" y="-9" type="curve" smooth="yes"/>
      <point x="392" y="-9"/>
      <point x="470" y="73"/>
      <point x="470" y="212" type="curve" smooth="yes"/>
      <point x="470" y="344"/>
      <point x="413" y="413"/>
      <point x="305" y="413" type="curve" smooth="yes"/>
      <point x="260" y="413"/>
      <point x="213" y="393"/>
      <point x="178" y="362" type="curve"/>
      <point x="172" y="395"/>
      <point x="154" y="414"/>
      <point x="122" y="414" type="curve" smooth="yes"/>
      <point x="104" y="414"/>
      <point x="74" y="405"/>
      <point x="50" y="378" type="curve"/>
      <point x="81" y="344"/>
      <point x="89" y="321"/>
      <point x="89" y="213" type="curve" smooth="yes"/>
      <point x="89" y="49"/>
      <point x="84" y="-104"/>
      <point x="77" y="-180" type="curve"/>
    </contour>
    <contour>
      <point x="226" y="39"/>
      <point x="197" y="53"/>
      <point x="175" y="79" type="curve"/>
      <point x="175" y="112" type="line" smooth="yes"/>
      <point x="175" y="196"/>
      <point x="179" y="264"/>
      <point x="180" y="315" type="curve"/>
      <point x="208" y="329"/>
      <point x="245" y="339"/>
      <point x="278" y="339" type="curve"/>
      <point x="334" y="318"/>
      <point x="368" y="256"/>
      <point x="368" y="177" type="curve" smooth="yes"/>
      <point x="368" y="90"/>
      <point x="327" y="39"/>
      <point x="257" y="39" type="curve" smooth="yes"/>
    </contour>
    <contour>
      <point x="263" y="407" type="move" name="top"/>
    </contour>
    <contour>
      <point x="263" y="0" type="move" name="bottom"/>
    </contour>
  </outline>
</glyph>
<glyph name="q" format="1">
  <advance width="510"/>
  <unicode hex="0071"/>
  <outline>
    <contour>
      <point x="367" y="-180"/>
      <point x="402" y="-176"/>
      <point x="438" y="-165" type="curve"/>
      <point x="431" y="-92"/>
      <point x="426" y="55"/>
      <point x="426" y="213" type="curve" smooth="yes"/>
      <point x="426" y="321"/>
      <point x="434" y="344"/>
      <point x="465" y="378" type="curve"/>
      <point x="441" y="405"/>
      <point x="411" y="414"/>
      <point x="393" y="414" type="curve" smooth="yes"/>
      <point x="365" y="414"/>
      <point x="348" y="400"/>
      <point x="340" y="374" type="curve"/>
      <point x="303" y="403"/>
      <point x="261" y="418"/>
      <point x="215" y="418" type="curve" smooth="yes"/>
      <point x="103" y="418"/>
      <point x="45" y="343"/>
      <point x="45" y="199" type="curve" smooth="yes"/>
      <point x="45" y="60"/>
      <point x="102" y="-12"/>
      <point x="210" y="-12" type="curve" smooth="yes"/>
      <point x="256" y="-12"/>
      <point x="304" y="11"/>
      <point x="340" y="47" type="curve"/>
      <point x="338" y="-58"/>
      <point x="332" y="-131"/>
      <point x="321" y="-180" type="curve"/>
    </contour>
    <contour>
      <point x="177" y="50"/>
      <point x="142" y="106"/>
      <point x="142" y="193" type="curve" smooth="yes"/>
      <point x="142" y="285"/>
      <point x="179" y="334"/>
      <point x="248" y="334" type="curve" smooth="yes"/>
      <point x="281" y="334"/>
      <point x="311" y="326"/>
      <point x="335" y="310" type="curve"/>
      <point x="336" y="260"/>
      <point x="340" y="193"/>
      <point x="340" y="112" type="curve" smooth="yes"/>
      <point x="340" y="91" type="line"/>
      <point x="310" y="64"/>
      <point x="271" y="45"/>
      <point x="237" y="40" type="curve"/>
    </contour>
    <contour>
      <point x="252" y="407" type="move" name="top"/>
    </contour>
    <contour>
      <point x="252" y="0" type="move" name="bottom"/>
    </contour>
  </outline>
</glyph>
<glyph name="r" format="1">
  <advance width="340"/>
  <unicode hex="0072"/>
  <outline>
    <contour>
      <point x="172" y="-6"/>
      <point x="192" y="-4"/>
      <point x="211" y="0" type="curve"/>
      <point x="198" y="29"/>
      <point x="191" y="82"/>
      <point x="191" y="150" type="curve" smooth="yes"/>
      <point x="191" y="206"/>
      <point x="193" y="253"/>
      <point x="194" y="291" type="curve"/>
      <point x="223" y="309"/>
      <point x="276" y="323"/>
      <point x="335" y="315" type="curve"/>
      <point x="335" y="351"/>
      <point x="327" y="399"/>
      <point x="317" y="423" type="curve"/>
      <point x="265" y="409"/>
      <point x="228" y="381"/>
      <point x="195" y="340" type="curve"/>
      <point x="193" y="387"/>
      <point x="174" y="414"/>
      <point x="132" y="414" type="curve" smooth="yes"/>
      <point x="114" y="414"/>
      <point x="84" y="405"/>
      <point x="60" y="378" type="curve"/>
      <point x="91" y="344"/>
      <point x="99" y="321"/>
      <point x="99" y="213" type="curve" smooth="yes"/>
      <point x="99" y="139"/>
      <point x="96" y="57"/>
      <point x="92" y="0" type="curve"/>
      <point x="115" y="-4"/>
      <point x="135" y="-6"/>
      <point x="153" y="-6" type="curve" smooth="yes"/>
    </contour>
    <contour>
      <point x="194" y="407" type="move" name="top"/>
    </contour>
    <contour>
      <point x="148" y="0" type="move" name="bottom"/>
    </contour>
  </outline>
</glyph>
<glyph name="s" format="1">
  <advance width="393"/>
  <unicode hex="0073"/>
  <outline>
    <contour>
      <point x="300" y="-11"/>
      <point x="363" y="33"/>
      <point x="363" y="109" type="curve" smooth="yes"/>
      <point x="363" y="249"/>
      <point x="139" y="238"/>
      <point x="139" y="325" type="curve" smooth="yes"/>
      <point x="139" y="345"/>
      <point x="159" y="363"/>
      <point x="189" y="369" type="curve"/>
      <point x="220" y="369"/>
      <point x="269" y="342"/>
      <point x="318" y="298" type="curve"/>
      <point x="335" y="327"/>
      <point x="349" y="372"/>
      <point x="349" y="394" type="curve"/>
      <point x="307" y="410"/>
      <point x="256" y="418"/>
      <point x="196" y="418" type="curve" smooth="yes"/>
      <point x="104" y="418"/>
      <point x="41" y="374"/>
      <point x="41" y="310" type="curve" smooth="yes"/>
      <point x="41" y="164"/>
      <point x="265" y="172"/>
      <point x="265" y="98" type="curve" smooth="yes"/>
      <point x="265" y="65"/>
      <point x="234" y="48"/>
      <point x="174" y="48" type="curve" smooth="yes"/>
      <point x="124" y="48"/>
      <point x="78" y="68"/>
      <point x="53" y="101" type="curve"/>
      <point x="40" y="73"/>
      <point x="35" y="52"/>
      <point x="35" y="25" type="curve"/>
      <point x="74" y="1"/>
      <point x="127" y="-11"/>
      <point x="189" y="-11" type="curve" smooth="yes"/>
    </contour>
    <contour>
      <point x="197" y="407" type="move" name="top"/>
    </contour>
    <contour>
      <point x="192" y="0" type="move" name="bottom"/>
    </contour>
  </outline>
</glyph>
<glyph name="t" format="1">
  <advance width="309"/>
  <unicode hex="0074"/>
  <outline>
    <contour>
      <point x="208" y="-9"/>
      <point x="256" y="16"/>
      <point x="281" y="53" type="curve"/>
      <point x="275" y="79" type="line"/>
      <point x="256" y="74"/>
      <point x="229" y="70"/>
      <point x="200" y="69" type="curve"/>
      <point x="190" y="115"/>
      <point x="186" y="184"/>
      <point x="186" y="252" type="curve" smooth="yes"/>
      <point x="186" y="284"/>
      <point x="187" y="314"/>
      <point x="189" y="343" type="curve"/>
      <point x="226" y="342"/>
      <point x="253" y="338"/>
      <point x="272" y="331" type="curve"/>
      <point x="284" y="354"/>
      <point x="289" y="374"/>
      <point x="289" y="404" type="curve"/>
      <point x="270" y="400"/>
      <point x="239" y="397"/>
      <point x="191" y="396" type="curve"/>
      <point x="190" y="421"/>
      <point x="188" y="447"/>
      <point x="186" y="466" type="curve"/>
      <point x="157" y="469" type="line"/>
      <point x="117" y="426"/>
      <point x="76" y="393"/>
      <point x="30" y="368" type="curve"/>
      <point x="30" y="346"/>
      <point x="44" y="340"/>
      <point x="98" y="340" type="curve"/>
      <point x="99" y="329"/>
      <point x="100" y="311"/>
      <point x="100" y="297" type="curve" smooth="yes"/>
      <point x="100" y="208"/>
      <point x="96" y="144"/>
      <point x="96" y="73" type="curve" smooth="yes"/>
      <point x="96" y="12"/>
      <point x="114" y="-9"/>
      <point x="163" y="-9" type="curve" smooth="yes"/>
    </contour>
    <contour>
      <point x="145" y="204" type="move" name="center"/>
    </contour>
    <contour>
      <point x="167" y="407" type="move" name="top"/>
    </contour>
    <contour>
      <point x="304" y="407" type="move" name="topright"/>
    </contour>
    <contour>
      <point x="157" y="0" type="move" name="bottom"/>
    </contour>
  </outline>
</glyph>
<glyph name="u" format="1">
  <advance width="494"/>
  <unicode hex="0075"/>
  <outline>
    <contour>
      <point x="243" y="-11"/>
      <point x="293" y="12"/>
      <point x="329" y="49" type="curve"/>
      <point x="335" y="23"/>
      <point x="348" y="3"/>
      <point x="368" y="-11" type="curve"/>
      <point x="399" y="-7"/>
      <point x="430" y="7"/>
      <point x="454" y="27" type="curve"/>
      <point x="423" y="60"/>
      <point x="415" y="82"/>
      <point x="415" y="132" type="curve" smooth="yes"/>
      <point x="415" y="171"/>
      <point x="421" y="323"/>
      <point x="427" y="417" type="curve"/>
      <point x="381" y="417"/>
      <point x="346" y="411"/>
      <point x="310" y="397" type="curve"/>
      <point x="323" y="368"/>
      <point x="329" y="324"/>
      <point x="329" y="257" type="curve" smooth="yes"/>
      <point x="329" y="226"/>
      <point x="325" y="157"/>
      <point x="325" y="89" type="curve"/>
      <point x="300" y="74"/>
      <point x="273" y="67"/>
      <point x="239" y="67" type="curve" smooth="yes"/>
      <point x="191" y="67"/>
      <point x="171" y="89"/>
      <point x="171" y="142" type="curve" smooth="yes"/>
      <point x="171" y="254"/>
      <point x="173" y="357"/>
      <point x="177" y="417" type="curve"/>
      <point x="131" y="417"/>
      <point x="96" y="411"/>
      <point x="60" y="397" type="curve"/>
      <point x="73" y="368"/>
      <point x="79" y="324"/>
      <point x="79" y="257" type="curve" smooth="yes"/>
      <point x="79" y="226"/>
      <point x="75" y="156"/>
      <point x="75" y="127" type="curve" smooth="yes"/>
      <point x="75" y="35"/>
      <point x="114" y="-11"/>
      <point x="192" y="-11" type="curve" smooth="yes"/>
    </contour>
    <contour>
      <point x="409" y="0" type="move" name="ogonek"/>
    </contour>
    <contour>
      <point x="254" y="407" type="move" name="top"/>
    </contour>
    <contour>
      <point x="507" y="407" type="move" name="topright"/>
    </contour>
    <contour>
      <point x="274" y="0" type="move" name="bottom"/>
    </contour>
  </outline>
</glyph>
<glyph name="v" format="1">
  <advance width="419"/>
  <unicode hex="0076"/>
  <outline>
    <contour>
      <point x="289" y="27" type="line"/>
      <point x="320" y="140"/>
      <point x="369" y="304"/>
      <point x="414" y="413" type="curve"/>
      <point x="383" y="413"/>
      <point x="355" y="411"/>
      <point x="321" y="402" type="curve"/>
      <point x="336" y="368"/>
      <point x="322" y="313"/>
      <point x="243" y="62" type="curve"/>
      <point x="204" y="127"/>
      <point x="137" y="347"/>
      <point x="125" y="413" type="curve"/>
      <point x="81" y="413"/>
      <point x="44" y="408"/>
      <point x="5" y="392" type="curve"/>
      <point x="111" y="261"/>
      <point x="107" y="-9"/>
      <point x="220" y="-9" type="curve"/>
    </contour>
    <contour>
      <point x="234" y="407" type="move" name="top"/>
    </contour>
    <contour>
      <point x="234" y="0" type="move" name="bottom"/>
    </contour>
  </outline>
</glyph>
<glyph name="w" format="1">
  <advance width="679"/>
  <unicode hex="0077"/>
  <outline>
    <contour>
      <point x="266" y="22" type="line"/>
      <point x="291" y="103"/>
      <point x="316" y="181"/>
      <point x="340" y="249" type="curve"/>
      <point x="356" y="192"/>
      <point x="373" y="134"/>
      <point x="392" y="73" type="curve" smooth="yes"/>
      <point x="409" y="18"/>
      <point x="436" y="-9"/>
      <point x="475" y="-9" type="curve"/>
      <point x="535" y="22" type="line"/>
      <point x="584" y="182"/>
      <point x="636" y="328"/>
      <point x="674" y="413" type="curve"/>
      <point x="637" y="413"/>
      <point x="610" y="410"/>
      <point x="580" y="402" type="curve"/>
      <point x="593" y="369"/>
      <point x="581" y="323"/>
      <point x="494" y="70" type="curve"/>
      <point x="475" y="110"/>
      <point x="404" y="353"/>
      <point x="395" y="413" type="curve"/>
      <point x="347" y="413"/>
      <point x="310" y="407"/>
      <point x="274" y="392" type="curve"/>
      <point x="285" y="381"/>
      <point x="297" y="361"/>
      <point x="309" y="334" type="curve"/>
      <point x="298" y="288"/>
      <point x="273" y="212"/>
      <point x="225" y="70" type="curve"/>
      <point x="206" y="110"/>
      <point x="135" y="353"/>
      <point x="126" y="413" type="curve"/>
      <point x="78" y="413"/>
      <point x="41" y="407"/>
      <point x="5" y="392" type="curve"/>
      <point x="23" y="374"/>
      <point x="46" y="327"/>
      <point x="64" y="272" type="curve" smooth="yes"/>
      <point x="83" y="208"/>
      <point x="100" y="144"/>
      <point x="123" y="73" type="curve" smooth="yes"/>
      <point x="140" y="18"/>
      <point x="167" y="-9"/>
      <point x="206" y="-9" type="curve"/>
    </contour>
    <contour>
      <point x="340" y="407" type="move" name="top"/>
    </contour>
    <contour>
      <point x="340" y="0" type="move" name="bottom"/>
    </contour>
  </outline>
</glyph>
<glyph name="x" format="1">
  <advance width="441"/>
  <unicode hex="0078"/>
  <outline>
    <contour>
      <point x="38" y="-6"/>
      <point x="70" y="-5"/>
      <point x="110" y="0" type="curve"/>
      <point x="114" y="18"/>
      <point x="128" y="45"/>
      <point x="206" y="151" type="curve"/>
      <point x="246" y="93"/>
      <point x="284" y="36"/>
      <point x="308" y="-6" type="curve"/>
      <point x="358" y="-6"/>
      <point x="397" y="-1"/>
      <point x="436" y="15" type="curve"/>
      <point x="405" y="42"/>
      <point x="336" y="130"/>
      <point x="270" y="223" type="curve"/>
      <point x="317" y="284"/>
      <point x="380" y="360"/>
      <point x="428" y="413" type="curve"/>
      <point x="395" y="413"/>
      <point x="363" y="411"/>
      <point x="323" y="402" type="curve"/>
      <point x="319" y="385"/>
      <point x="307" y="361"/>
      <point x="238" y="268" type="curve"/>
      <point x="201" y="322"/>
      <point x="167" y="373"/>
      <point x="144" y="413" type="curve"/>
      <point x="94" y="413"/>
      <point x="56" y="408"/>
      <point x="17" y="392" type="curve"/>
      <point x="47" y="365"/>
      <point x="111" y="284"/>
      <point x="173" y="197" type="curve"/>
      <point x="126" y="134"/>
      <point x="58" y="51"/>
      <point x="5" y="-6" type="curve"/>
    </contour>
    <contour>
      <point x="222" y="407" type="move" name="top"/>
    </contour>
    <contour>
      <point x="222" y="0" type="move" name="bottom"/>
    </contour>
  </outline>
</glyph>
<glyph name="y" format="1">
  <advance width="491"/>
  <unicode hex="0079"/>
  <outline>
    <contour>
      <point x="338" y="-180"/>
      <point x="428" y="-124"/>
      <point x="428" y="0" type="curve" smooth="yes"/>
      <point x="428" y="14"/>
      <point x="424" y="80"/>
      <point x="424" y="167" type="curve" smooth="yes"/>
      <point x="424" y="279"/>
      <point x="426" y="359"/>
      <point x="431" y="417" type="curve"/>
      <point x="385" y="417"/>
      <point x="350" y="411"/>
      <point x="314" y="397" type="curve"/>
      <point x="326" y="372"/>
      <point x="333" y="320"/>
      <point x="333" y="257" type="curve" smooth="yes"/>
      <point x="333" y="235"/>
      <point x="335" y="199"/>
      <point x="336" y="112" type="curve"/>
      <point x="309" y="94"/>
      <point x="280" y="86"/>
      <point x="243" y="86" type="curve" smooth="yes"/>
      <point x="195" y="86"/>
      <point x="175" y="108"/>
      <point x="175" y="161" type="curve" smooth="yes"/>
      <point x="175" y="280"/>
      <point x="177" y="368"/>
      <point x="181" y="417" type="curve"/>
      <point x="135" y="417"/>
      <point x="100" y="411"/>
      <point x="64" y="397" type="curve"/>
      <point x="77" y="368"/>
      <point x="83" y="324"/>
      <point x="83" y="257" type="curve" smooth="yes"/>
      <point x="83" y="231"/>
      <point x="79" y="168"/>
      <point x="79" y="146" type="curve" smooth="yes"/>
      <point x="79" y="85"/>
      <point x="96" y="44"/>
      <point x="131" y="24" type="curve"/>
      <point x="80" y="-23"/>
      <point x="50" y="-80"/>
      <point x="50" y="-137" type="curve"/>
      <point x="89" y="-164"/>
      <point x="146" y="-180"/>
      <point x="217" y="-180" type="curve" smooth="yes"/>
    </contour>
    <contour>
      <point x="185" y="-123"/>
      <point x="148" y="-106"/>
      <point x="124" y="-82" type="curve"/>
      <point x="130" y="-51"/>
      <point x="147" y="-19"/>
      <point x="170" y="10" type="curve"/>
      <point x="233" y="2"/>
      <point x="293" y="24"/>
      <point x="336" y="71" type="curve"/>
      <point x="336" y="22" type="line" smooth="yes"/>
      <point x="336" y="-89"/>
      <point x="292" y="-123"/>
      <point x="225" y="-123" type="curve" smooth="yes"/>
    </contour>
    <contour>
      <point x="244" y="407" type="move" name="top"/>
    </contour>
    <contour>
      <point x="244" y="0" type="move" name="bottom"/>
    </contour>
  </outline>
</glyph>
<glyph name="braceleft" format="1">
  <advance width="356"/>
  <unicode hex="007B"/>
  <outline>
    <contour>
      <point x="324" y="-104"/>
      <point x="326" y="-90"/>
      <point x="326" y="-77" type="curve" smooth="yes"/>
      <point x="326" y="-61"/>
      <point x="324" y="-46"/>
      <point x="321" y="-30" type="curve"/>
      <point x="279" y="-36"/>
      <point x="244" y="-39"/>
      <point x="215" y="-39" type="curve"/>
      <point x="200" y="-19"/>
      <point x="187" y="15"/>
      <point x="187" y="78" type="curve" smooth="yes"/>
      <point x="187" y="103"/>
      <point x="189" y="129"/>
      <point x="189" y="154" type="curve" smooth="yes"/>
      <point x="189" y="208"/>
      <point x="181" y="254"/>
      <point x="135" y="262" type="curve"/>
      <point x="135" y="266" type="line"/>
      <point x="181" y="274"/>
      <point x="188" y="320"/>
      <point x="188" y="374" type="curve" smooth="yes"/>
      <point x="188" y="398"/>
      <point x="187" y="424"/>
      <point x="187" y="449" type="curve" smooth="yes"/>
      <point x="187" y="512"/>
      <point x="200" y="547"/>
      <point x="215" y="567" type="curve"/>
      <point x="244" y="567"/>
      <point x="279" y="564"/>
      <point x="321" y="558" type="curve"/>
      <point x="324" y="574"/>
      <point x="326" y="589"/>
      <point x="326" y="605" type="curve" smooth="yes"/>
      <point x="326" y="618"/>
      <point x="324" y="632"/>
      <point x="321" y="647" type="curve"/>
      <point x="182" y="647"/>
      <point x="83" y="612"/>
      <point x="83" y="476" type="curve" smooth="yes"/>
      <point x="83" y="434"/>
      <point x="102" y="365"/>
      <point x="102" y="327" type="curve" smooth="yes"/>
      <point x="102" y="306"/>
      <point x="86" y="287"/>
      <point x="45" y="286" type="curve"/>
      <point x="45" y="242" type="line"/>
      <point x="86" y="241"/>
      <point x="102" y="222"/>
      <point x="102" y="201" type="curve" smooth="yes"/>
      <point x="102" y="154"/>
      <point x="83" y="94"/>
      <point x="83" y="52" type="curve" smooth="yes"/>
      <point x="83" y="-84"/>
      <point x="182" y="-119"/>
      <point x="321" y="-119" type="curve"/>
    </contour>
  </outline>
</glyph>
<glyph name="bar" format="1">
  <advance width="344"/>
  <unicode hex="007C"/>
  <outline>
    <contour>
      <point x="200" y="-111"/>
      <point x="223" y="-109"/>
      <point x="244" y="-103" type="curve"/>
      <point x="233" y="-36"/>
      <point x="228" y="55"/>
      <point x="228" y="292" type="curve" smooth="yes"/>
      <point x="228" y="377"/>
      <point x="233" y="565"/>
      <point x="239" y="630" type="curve"/>
      <point x="213" y="636"/>
      <point x="191" y="639"/>
      <point x="171" y="639" type="curve" smooth="yes"/>
      <point x="147" y="639"/>
      <point x="122" y="636"/>
      <point x="100" y="630" type="curve"/>
      <point x="111" y="572"/>
      <point x="116" y="490"/>
      <point x="116" y="292" type="curve" smooth="yes"/>
      <point x="116" y="194"/>
      <point x="111" y="-19"/>
      <point x="105" y="-103" type="curve"/>
      <point x="133" y="-109"/>
      <point x="157" y="-111"/>
      <point x="179" y="-111" type="curve" smooth="yes"/>
    </contour>
  </outline>
</glyph>
<glyph name="asciitilde" format="1">
  <advance width="533"/>
  <unicode hex="007E"/>
  <outline>
    <contour>
      <point x="409" y="209"/>
      <point x="450" y="229"/>
      <point x="463" y="298" type="curve"/>
      <point x="444" y="307"/>
      <point x="421" y="313"/>
      <point x="401" y="315" type="curve"/>
      <point x="395" y="289"/>
      <point x="377" y="279"/>
      <point x="352" y="279" type="curve" smooth="yes"/>
      <point x="288" y="279"/>
      <point x="231" y="323"/>
      <point x="169" y="323" type="curve" smooth="yes"/>
      <point x="124" y="323"/>
      <point x="82" y="303"/>
      <point x="70" y="234" type="curve"/>
      <point x="89" y="225"/>
      <point x="112" y="219"/>
      <point x="132" y="217" type="curve"/>
      <point x="138" y="243"/>
      <point x="156" y="253"/>
      <point x="180" y="253" type="curve" smooth="yes"/>
      <point x="244" y="253"/>
      <point x="302" y="209"/>
      <point x="364" y="209" type="curve" smooth="yes"/>
    </contour>
  </outline>
</glyph>
<glyph name="sterling" format="1">
  <advance width="506"/>
  <unicode hex="00A3"/>
  <outline>
    <contour>
      <point x="442" y="12"/>
      <point x="451" y="63"/>
      <point x="451" y="103" type="curve"/>
      <point x="414" y="87"/>
      <point x="350" y="77"/>
      <point x="287" y="77" type="curve" smooth="yes"/>
      <point x="242" y="77"/>
      <point x="188" y="81"/>
      <point x="159" y="86" type="curve"/>
      <point x="189" y="128"/>
      <point x="197" y="174"/>
      <point x="197" y="220" type="curve" smooth="yes"/>
      <point x="197" y="286"/>
      <point x="179" y="352"/>
      <point x="179" y="401" type="curve" smooth="yes"/>
      <point x="179" y="445"/>
      <point x="203" y="472"/>
      <point x="250" y="480" type="curve"/>
      <point x="287" y="476"/>
      <point x="349" y="448"/>
      <point x="407" y="408" type="curve"/>
      <point x="423" y="431"/>
      <point x="437" y="478"/>
      <point x="437" y="509" type="curve"/>
      <point x="406" y="523"/>
      <point x="325" y="534"/>
      <point x="258" y="534" type="curve" smooth="yes"/>
      <point x="139" y="534"/>
      <point x="75" y="491"/>
      <point x="75" y="412" type="curve" smooth="yes"/>
      <point x="75" y="328"/>
      <point x="131" y="251"/>
      <point x="131" y="175" type="curve" smooth="yes"/>
      <point x="131" y="129"/>
      <point x="111" y="84"/>
      <point x="45" y="38" type="curve"/>
      <point x="45" y="0" type="line"/>
      <point x="84" y="2"/>
      <point x="146" y="3"/>
      <point x="212" y="3" type="curve" smooth="yes"/>
      <point x="304" y="3"/>
      <point x="407" y="0"/>
      <point x="430" y="-5" type="curve"/>
    </contour>
    <component base="uni0335"/>
  </outline>
</glyph>
<glyph name="brokenbar" format="1">
  <advance width="344"/>
  <unicode hex="00A6"/>
  <outline>
    <contour>
      <point x="137" y="312" type="line"/>
      <point x="167" y="341"/>
      <point x="197" y="366"/>
      <point x="228" y="388" type="curve"/>
      <point x="228" y="449"/>
      <point x="233" y="584"/>
      <point x="239" y="630" type="curve"/>
      <point x="213" y="636"/>
      <point x="191" y="639"/>
      <point x="171" y="639" type="curve" smooth="yes"/>
      <point x="147" y="639"/>
      <point x="122" y="636"/>
      <point x="100" y="630" type="curve"/>
      <point x="111" y="575"/>
      <point x="116" y="498"/>
      <point x="116" y="312" type="curve"/>
    </contour>
    <contour>
      <point x="192" y="-111"/>
      <point x="217" y="-108"/>
      <point x="239" y="-102" type="curve"/>
      <point x="228" y="-47"/>
      <point x="223" y="30"/>
      <point x="223" y="216" type="curve"/>
      <point x="202" y="216" type="line"/>
      <point x="172" y="187"/>
      <point x="142" y="162"/>
      <point x="111" y="140" type="curve"/>
      <point x="111" y="79"/>
      <point x="106" y="-56"/>
      <point x="100" y="-102" type="curve"/>
      <point x="126" y="-108"/>
      <point x="148" y="-111"/>
      <point x="168" y="-111" type="curve" smooth="yes"/>
    </contour>
  </outline>
</glyph>
<glyph name="ordfeminine" format="1">
  <advance width="347"/>
  <unicode hex="00AA"/>
  <outline>
    <contour>
      <point x="139" y="293"/>
      <point x="177" y="306"/>
      <point x="210" y="328" type="curve"/>
      <point x="215" y="313"/>
      <point x="224" y="302"/>
      <point x="237" y="293" type="curve"/>
      <point x="260" y="295"/>
      <point x="283" y="304"/>
      <point x="301" y="318" type="curve"/>
      <point x="279" y="339"/>
      <point x="273" y="354"/>
      <point x="273" y="386" type="curve" smooth="yes"/>
      <point x="273" y="416"/>
      <point x="280" y="450"/>
      <point x="280" y="485" type="curve" smooth="yes"/>
      <point x="280" y="541"/>
      <point x="244" y="572"/>
      <point x="181" y="572" type="curve" smooth="yes"/>
      <point x="134" y="572"/>
      <point x="86" y="546"/>
      <point x="59" y="507" type="curve"/>
      <point x="65" y="483" type="line"/>
      <point x="89" y="501"/>
      <point x="121" y="512"/>
      <point x="151" y="512" type="curve" smooth="yes"/>
      <point x="194" y="512"/>
      <point x="211" y="492"/>
      <point x="211" y="445" type="curve"/>
      <point x="101" y="438"/>
      <point x="46" y="408"/>
      <point x="46" y="354" type="curve" smooth="yes"/>
      <point x="46" y="318"/>
      <point x="71" y="293"/>
      <point x="109" y="293" type="curve" smooth="yes"/>
    </contour>
    <contour>
      <point x="128" y="337"/>
      <point x="119" y="352"/>
      <point x="119" y="366" type="curve" smooth="yes"/>
      <point x="119" y="397"/>
      <point x="152" y="417"/>
      <point x="210" y="420" type="curve"/>
      <point x="209" y="396"/>
      <point x="206" y="380"/>
      <point x="206" y="358" type="curve" smooth="yes"/>
      <point x="206" y="355" type="line"/>
      <point x="187" y="342"/>
      <point x="161" y="332"/>
      <point x="141" y="330" type="curve"/>
    </contour>
  </outline>
</glyph>
<glyph name="guillemotleft" format="1">
  <advance width="477"/>
  <unicode hex="00AB"/>
  <outline>
    <contour>
      <point x="401" y="61"/>
      <point x="419" y="81"/>
      <point x="437" y="107" type="curve"/>
      <point x="322" y="222" type="line"/>
      <point x="437" y="337" type="line"/>
      <point x="419" y="363"/>
      <point x="401" y="383"/>
      <point x="370" y="406" type="curve"/>
      <point x="329" y="345"/>
      <point x="288" y="297"/>
      <point x="230" y="234" type="curve"/>
      <point x="230" y="210" type="line"/>
      <point x="288" y="147"/>
      <point x="329" y="99"/>
      <point x="370" y="38" type="curve"/>
    </contour>
    <contour>
      <point x="201" y="61"/>
      <point x="219" y="81"/>
      <point x="237" y="107" type="curve"/>
      <point x="122" y="222" type="line"/>
      <point x="237" y="337" type="line"/>
      <point x="219" y="363"/>
      <point x="201" y="383"/>
      <point x="170" y="406" type="curve"/>
      <point x="129" y="345"/>
      <point x="88" y="297"/>
      <point x="30" y="234" type="curve"/>
      <point x="30" y="210" type="line"/>
      <point x="88" y="147"/>
      <point x="129" y="99"/>
      <point x="170" y="38" type="curve"/>
    </contour>
  </outline>
</glyph>
<glyph name="degree" format="1">
  <advance width="360"/>
  <unicode hex="00B0"/>
  <outline>
    <contour>
      <point x="260" y="345"/>
      <point x="323" y="404"/>
      <point x="323" y="489" type="curve" smooth="yes"/>
      <point x="323" y="566"/>
      <point x="272" y="617"/>
      <point x="195" y="617" type="curve" smooth="yes"/>
      <point x="102" y="617"/>
      <point x="37" y="558"/>
      <point x="37" y="475" type="curve" smooth="yes"/>
      <point x="37" y="397"/>
      <point x="90" y="345"/>
      <point x="170" y="345" type="curve" smooth="yes"/>
    </contour>
    <contour>
      <point x="133" y="394"/>
      <point x="102" y="432"/>
      <point x="102" y="489" type="curve" smooth="yes"/>
      <point x="102" y="543"/>
      <point x="138" y="582"/>
      <point x="187" y="582" type="curve"/>
      <point x="232" y="574"/>
      <point x="258" y="538"/>
      <point x="258" y="486" type="curve" smooth="yes"/>
      <point x="258" y="429"/>
      <point x="227" y="394"/>
      <point x="178" y="394" type="curve" smooth="yes"/>
    </contour>
  </outline>
</glyph>
<glyph name="ae" format="1">
  <advance width="688"/>
  <unicode hex="00E6"/>
  <outline>
    <contour>
      <point x="178" y="-11"/>
      <point x="246" y="18"/>
      <point x="298" y="62" type="curve"/>
      <point x="326" y="14"/>
      <point x="373" y="-11"/>
      <point x="438" y="-11" type="curve" smooth="yes"/>
      <point x="511" y="-11"/>
      <point x="587" y="25"/>
      <point x="628" y="78" type="curve"/>
      <point x="620" y="104" type="line"/>
      <point x="584" y="80"/>
      <point x="534" y="67"/>
      <point x="479" y="67" type="curve" smooth="yes"/>
      <point x="410" y="67"/>
      <point x="376" y="100"/>
      <point x="367" y="175" type="curve"/>
      <point x="467" y="178"/>
      <point x="574" y="192"/>
      <point x="643" y="209" type="curve"/>
      <point x="643" y="346"/>
      <point x="586" y="418"/>
      <point x="478" y="418" type="curve" smooth="yes"/>
      <point x="425" y="418"/>
      <point x="378" y="401"/>
      <point x="343" y="370" type="curve"/>
      <point x="320" y="401"/>
      <point x="281" y="418"/>
      <point x="229" y="418" type="curve" smooth="yes"/>
      <point x="164" y="418"/>
      <point x="96" y="378"/>
      <point x="59" y="319" type="curve"/>
      <point x="67" y="293" type="line"/>
      <point x="101" y="316"/>
      <point x="146" y="330"/>
      <point x="188" y="330" type="curve" smooth="yes"/>
      <point x="261" y="330"/>
      <point x="269" y="293"/>
      <point x="269" y="215" type="curve"/>
      <point x="115" y="204"/>
      <point x="40" y="161"/>
      <point x="40" y="83" type="curve" smooth="yes"/>
      <point x="40" y="28"/>
      <point x="77" y="-11"/>
      <point x="127" y="-11" type="curve" smooth="yes"/>
    </contour>
    <contour>
      <point x="151" y="52"/>
      <point x="138" y="76"/>
      <point x="138" y="98" type="curve" smooth="yes"/>
      <point x="138" y="146"/>
      <point x="185" y="177"/>
      <point x="268" y="182" type="curve"/>
      <point x="269" y="148"/>
      <point x="274" y="118"/>
      <point x="283" y="93" type="curve"/>
      <point x="255" y="67"/>
      <point x="208" y="44"/>
      <point x="170" y="40" type="curve"/>
    </contour>
    <contour>
      <point x="365" y="284"/>
      <point x="391" y="345"/>
      <point x="431" y="369" type="curve"/>
      <point x="490" y="369"/>
      <point x="532" y="319"/>
      <point x="533" y="251" type="curve"/>
      <point x="496" y="233"/>
      <point x="427" y="217"/>
      <point x="365" y="211" type="curve"/>
    </contour>
    <contour>
      <point x="344" y="407" type="move" name="top"/>
    </contour>
    <contour>
      <point x="344" y="0" type="move" name="bottom"/>
    </contour>
  </outline>
</glyph>
<glyph name="thorn" format="1">
  <advance width="505"/>
  <unicode hex="00FE"/>
  <outline>
    <contour>
      <point x="113" y="-180"/>
      <point x="148" y="-174"/>
      <point x="184" y="-160" type="curve"/>
      <point x="175" y="-121"/>
      <point x="169" y="-67"/>
      <point x="167" y="8" type="curve"/>
      <point x="192" y="-4"/>
      <point x="220" y="-9"/>
      <point x="250" y="-9" type="curve" smooth="yes"/>
      <point x="382" y="-9"/>
      <point x="460" y="73"/>
      <point x="460" y="212" type="curve" smooth="yes"/>
      <point x="460" y="344"/>
      <point x="403" y="413"/>
      <point x="295" y="413" type="curve" smooth="yes"/>
      <point x="250" y="413"/>
      <point x="203" y="393"/>
      <point x="168" y="362" type="curve"/>
      <point x="170" y="443"/>
      <point x="173" y="507"/>
      <point x="177" y="547" type="curve"/>
      <point x="136" y="547"/>
      <point x="101" y="543"/>
      <point x="60" y="527" type="curve"/>
      <point x="73" y="480"/>
      <point x="79" y="406"/>
      <point x="79" y="297" type="curve" smooth="yes"/>
      <point x="79" y="98"/>
      <point x="74" y="-88"/>
      <point x="67" y="-180" type="curve"/>
    </contour>
    <contour>
      <point x="216" y="39"/>
      <point x="187" y="53"/>
      <point x="165" y="79" type="curve"/>
      <point x="163" y="161"/>
      <point x="164" y="227"/>
      <point x="167" y="313" type="curve"/>
      <point x="196" y="328"/>
      <point x="234" y="339"/>
      <point x="268" y="339" type="curve"/>
      <point x="324" y="318"/>
      <point x="358" y="256"/>
      <point x="358" y="177" type="curve" smooth="yes"/>
      <point x="358" y="90"/>
      <point x="317" y="39"/>
      <point x="247" y="39" type="curve" smooth="yes"/>
    </contour>
    <contour>
      <point x="250" y="407" type="move" name="top"/>
    </contour>
    <contour>
      <point x="250" y="0" type="move" name="bottom"/>
    </contour>
  </outline>
</glyph>
<glyph name="dotlessi" format="1">
  <advance width="244"/>
  <unicode hex="0131"/>
  <outline>
    <contour>
      <point x="150" y="-9"/>
      <point x="180" y="0"/>
      <point x="204" y="27" type="curve"/>
      <point x="173" y="61"/>
      <point x="165" y="84"/>
      <point x="165" y="192" type="curve" smooth="yes"/>
      <point x="165" y="294"/>
      <point x="170" y="379"/>
      <point x="177" y="417" type="curve"/>
      <point x="136" y="417"/>
      <point x="101" y="413"/>
      <point x="60" y="397" type="curve"/>
      <point x="73" y="376"/>
      <point x="79" y="322"/>
      <point x="79" y="272" type="curve" smooth="yes"/>
      <point x="79" y="208"/>
      <point x="75" y="144"/>
      <point x="75" y="73" type="curve" smooth="yes"/>
      <point x="75" y="10"/>
      <point x="91" y="-9"/>
      <point x="132" y="-9" type="curve" smooth="yes"/>
    </contour>
    <contour>
      <point x="168" y="0" type="move" name="ogonek"/>
    </contour>
    <contour>
      <point x="125" y="0" type="move" name="bottom"/>
    </contour>
    <contour>
      <point x="120" y="407" type="move" name="top"/>
    </contour>
  </outline>
</glyph>
<glyph name="florin" format="1">
  <advance width="326"/>
  <unicode hex="0192"/>
  <outline>
    <contour>
      <point x="203" y="-39"/>
      <point x="198" y="115"/>
      <point x="198" y="277" type="curve" smooth="yes"/>
      <point x="198" y="464"/>
      <point x="205" y="515"/>
      <point x="233" y="536" type="curve"/>
      <point x="261" y="536"/>
      <point x="306" y="512"/>
      <point x="347" y="475" type="curve"/>
      <point x="363" y="503"/>
      <point x="376" y="549"/>
      <point x="376" y="571" type="curve"/>
      <point x="348" y="580"/>
      <point x="315" y="585"/>
      <point x="280" y="585" type="curve" smooth="yes"/>
      <point x="126" y="585"/>
      <point x="104" y="438"/>
      <point x="104" y="351" type="curve" smooth="yes"/>
      <point x="104" y="220"/>
      <point x="108" y="133"/>
      <point x="108" y="69" type="curve" smooth="yes"/>
      <point x="108" y="-4"/>
      <point x="105" y="-55"/>
      <point x="95" y="-100" type="curve"/>
      <point x="130" y="-110"/>
      <point x="165" y="-114"/>
      <point x="210" y="-114" type="curve"/>
    </contour>
    <component base="uni0335" xOffset="-27" yOffset="70" xScale="0.943"/>
  </outline>
</glyph>
<glyph name="uni0237" format="1">
  <advance width="245"/>
  <unicode hex="0237"/>
  <outline>
    <contour>
      <point x="111" y="-111"/>
      <point x="171" y="-63"/>
      <point x="171" y="63" type="curve" smooth="yes"/>
      <point x="171" y="110"/>
      <point x="168" y="129"/>
      <point x="168" y="172" type="curve" smooth="yes"/>
      <point x="168" y="257"/>
      <point x="170" y="374"/>
      <point x="175" y="417" type="curve"/>
      <point x="134" y="417"/>
      <point x="99" y="413"/>
      <point x="58" y="397" type="curve"/>
      <point x="77" y="367"/>
      <point x="79" y="320"/>
      <point x="79" y="106" type="curve" smooth="yes"/>
      <point x="79" y="-54"/>
      <point x="46" y="-109"/>
      <point x="-20" y="-171" type="curve"/>
      <point x="-9" y="-189" type="line"/>
    </contour>
    <contour>
      <point x="123" y="407" type="move" name="top"/>
    </contour>
    <contour>
      <point x="123" y="0" type="move" name="bottom"/>
    </contour>
  </outline>
</glyph>
<glyph name="uni0306" format="1">
  <advance width="279"/>
  <unicode hex="0306"/>
  <outline>
    <contour>
      <point x="210" y="480"/>
      <point x="259" y="531"/>
      <point x="259" y="604" type="curve"/>
      <point x="247" y="612"/>
      <point x="228" y="617"/>
      <point x="211" y="617" type="curve"/>
      <point x="211" y="569"/>
      <point x="189" y="538"/>
      <point x="155" y="538" type="curve" smooth="yes"/>
      <point x="123" y="538"/>
      <point x="103" y="568"/>
      <point x="103" y="617" type="curve"/>
      <point x="69" y="617"/>
      <point x="44" y="612"/>
      <point x="20" y="599" type="curve"/>
      <point x="20" y="529"/>
      <point x="71" y="480"/>
      <point x="142" y="480" type="curve" smooth="yes"/>
    </contour>
    <contour>
      <point x="140" y="612" type="move" name="top"/>
    </contour>
    <contour>
      <point x="140" y="407" type="move" name="_top"/>
    </contour>
  </outline>
</glyph>
<glyph name="uni0307" format="1">
  <advance width="208"/>
  <unicode hex="0307"/>
  <outline>
    <contour>
      <point x="128" y="497"/>
      <point x="149" y="518"/>
      <point x="169" y="542" type="curve"/>
      <point x="145" y="562"/>
      <point x="124" y="583"/>
      <point x="104" y="607" type="curve"/>
      <point x="80" y="587"/>
      <point x="59" y="566"/>
      <point x="39" y="542" type="curve"/>
      <point x="63" y="522"/>
      <point x="84" y="501"/>
      <point x="104" y="477" type="curve"/>
    </contour>
    <contour>
      <point x="104" y="607" type="move" name="top"/>
    </contour>
    <contour>
      <point x="104" y="407" type="move" name="_top"/>
    </contour>
  </outline>
</glyph>
<glyph name="uni0327" format="1">
  <advance width="201"/>
  <unicode hex="0327"/>
  <outline>
    <contour>
      <point x="164" y="-219"/>
      <point x="197" y="-190"/>
      <point x="197" y="-140" type="curve" smooth="yes"/>
      <point x="197" y="-92"/>
      <point x="160" y="-56"/>
      <point x="100" y="-44" type="curve"/>
      <point x="109" y="14" type="line"/>
      <point x="71" y="14" type="line"/>
      <point x="55" y="-50" type="line"/>
      <point x="104" y="-61"/>
      <point x="130" y="-86"/>
      <point x="130" y="-120" type="curve" smooth="yes"/>
      <point x="130" y="-152"/>
      <point x="109" y="-172"/>
      <point x="74" y="-172" type="curve" smooth="yes"/>
      <point x="53" y="-172"/>
      <point x="30" y="-164"/>
      <point x="13" y="-150" type="curve"/>
      <point x="4" y="-173" type="line"/>
      <point x="25" y="-200"/>
      <point x="65" y="-219"/>
      <point x="105" y="-219" type="curve" smooth="yes"/>
    </contour>
    <contour>
      <point x="87" y="0" type="move" name="_bottom"/>
    </contour>
  </outline>
</glyph>
<glyph name="uni0336" format="1">
  <advance width="637"/>
  <unicode hex="0336"/>
  <outline>
    <contour>
      <point x="139" y="194"/>
      <point x="177" y="197"/>
      <point x="304" y="197" type="curve" smooth="yes"/>
      <point x="396" y="197"/>
      <point x="510" y="194"/>
      <point x="571" y="190" type="curve"/>
      <point x="575" y="202"/>
      <point x="579" y="215"/>
      <point x="579" y="226" type="curve" smooth="yes"/>
      <point x="579" y="238"/>
      <point x="575" y="250"/>
      <point x="571" y="261" type="curve"/>
      <point x="506" y="255"/>
      <point x="460" y="252"/>
      <point x="335" y="252" type="curve" smooth="yes"/>
      <point x="241" y="252"/>
      <point x="132" y="254"/>
      <point x="67" y="259" type="curve"/>
      <point x="61" y="247"/>
      <point x="58" y="233"/>
      <point x="58" y="223" type="curve" smooth="yes"/>
      <point x="58" y="211"/>
      <point x="61" y="199"/>
      <point x="67" y="188" type="curve"/>
    </contour>
    <contour>
      <point x="319" y="224" type="move" name="_center"/>
    </contour>
  </outline>
</glyph>
<glyph name="emdash" format="1">
  <advance width="756"/>
  <unicode hex="2014"/>
  <outline>
    <contour>
      <point x="135" y="148"/>
      <point x="265" y="157"/>
      <point x="389" y="157" type="curve" smooth="yes"/>
      <point x="488" y="157"/>
      <point x="589" y="156"/>
      <point x="701" y="152" type="curve"/>
      <point x="701" y="189"/>
      <point x="694" y="221"/>
      <point x="671" y="258" type="curve"/>
      <point x="618" y="248"/>
      <point x="487" y="239"/>
      <point x="365" y="239" type="curve" smooth="yes"/>
      <point x="265" y="239"/>
      <point x="165" y="240"/>
      <point x="55" y="244" type="curve"/>
      <point x="55" y="207"/>
      <point x="62" y="175"/>
      <point x="83" y="138" type="curve"/>
    </contour>
  </outline>
</glyph>
<glyph name="guilsinglleft" format="1">
  <advance width="277"/>
  <unicode hex="2039"/>
  <outline>
    <contour>
      <point x="201" y="61"/>
      <point x="219" y="81"/>
      <point x="237" y="107" type="curve"/>
      <point x="122" y="222" type="line"/>
      <point x="237" y="337" type="line"/>
      <point x="219" y="363"/>
      <point x="201" y="383"/>
      <point x="170" y="406" type="curve"/>
      <point x="129" y="345"/>
      <point x="88" y="297"/>
      <point x="30" y="234" type="curve"/>
      <point x="30" y="210" type="line"/>
      <point x="88" y="147"/>
      <point x="129" y="99"/>
      <point x="170" y="38" type="curve"/>
    </contour>
  </outline>
</glyph>
<glyph name="Euro" format="1">
  <advance width="510"/>
  <unicode hex="20AC"/>
  <outline>
    <contour>
      <point x="342" y="-11"/>
      <point x="417" y="25"/>
      <point x="458" y="78" type="curve"/>
      <point x="450" y="109" type="line"/>
      <point x="412" y="85"/>
      <point x="358" y="72"/>
      <point x="301" y="72" type="curve" smooth="yes"/>
      <point x="215" y="72"/>
      <point x="155" y="130"/>
      <point x="155" y="269" type="curve" smooth="yes"/>
      <point x="155" y="366"/>
      <point x="205" y="462"/>
      <point x="265" y="479" type="curve"/>
      <point x="299" y="479"/>
      <point x="365" y="448"/>
      <point x="415" y="408" type="curve"/>
      <point x="431" y="431"/>
      <point x="445" y="478"/>
      <point x="445" y="509" type="curve"/>
      <point x="408" y="525"/>
      <point x="362" y="533"/>
      <point x="309" y="533" type="curve" smooth="yes"/>
      <point x="160" y="533"/>
      <point x="56" y="413"/>
      <point x="56" y="241" type="curve" smooth="yes"/>
      <point x="56" y="79"/>
      <point x="133" y="-11"/>
      <point x="271" y="-11" type="curve" smooth="yes"/>
    </contour>
    <component base="uni0335" xOffset="-45" yOffset="64"/>
    <component base="uni0335" xOffset="-50" yOffset="-66"/>
    <contour>
      <point x="267" y="527" type="move" name="top"/>
    </contour>
    <contour>
      <point x="249" y="0" type="move" name="bottom"/>
    </contour>
  </outline>
</glyph>
<glyph name="uni2113" format="1">
  <advance width="291"/>
  <unicode hex="2113"/>
  <outline>
    <contour>
      <point x="218" y="-9"/>
      <point x="260" y="50"/>
      <point x="260" y="129" type="curve"/>
      <point x="240" y="129" type="line"/>
      <point x="240" y="84"/>
      <point x="219" y="48"/>
      <point x="194" y="45" type="curve"/>
      <point x="187" y="72"/>
      <point x="185" y="106"/>
      <point x="185" y="192" type="curve" smooth="yes"/>
      <point x="185" y="244" type="line"/>
      <point x="234" y="298"/>
      <point x="256" y="369"/>
      <point x="256" y="428" type="curve" smooth="yes"/>
      <point x="256" y="495"/>
      <point x="228" y="547"/>
      <point x="184" y="547" type="curve" smooth="yes"/>
      <point x="148" y="547"/>
      <point x="121" y="536"/>
      <point x="99" y="517" type="curve"/>
      <point x="99" y="317" type="line" smooth="yes"/>
      <point x="99" y="232"/>
      <point x="95" y="157"/>
      <point x="95" y="83" type="curve" smooth="yes"/>
      <point x="95" y="12"/>
      <point x="111" y="-9"/>
      <point x="152" y="-9" type="curve" smooth="yes"/>
    </contour>
    <contour>
      <point x="185" y="507" type="line"/>
      <point x="211" y="507"/>
      <point x="236" y="474"/>
      <point x="236" y="428" type="curve" smooth="yes"/>
      <point x="236" y="373"/>
      <point x="217" y="319"/>
      <point x="185" y="276" type="curve"/>
    </contour>
  </outline>
</glyph>
<glyph name="emptyset" format="1">
  <advance width="594"/>
  <unicode hex="2205"/>
  <outline>
    <contour>
      <point x="442" y="-11"/>
      <point x="559" y="109"/>
      <point x="559" y="279" type="curve" smooth="yes"/>
      <point x="559" y="432"/>
      <point x="465" y="534"/>
      <point x="325" y="534" type="curve" smooth="yes"/>
      <point x="154" y="534"/>
      <point x="35" y="417"/>
      <point x="35" y="251" type="curve" smooth="yes"/>
      <point x="35" y="94"/>
      <point x="132" y="-11"/>
      <point x="277" y="-11" type="curve" smooth="yes"/>
    </contour>
    <contour>
      <point x="178" y="75"/>
      <point x="108" y="146"/>
      <point x="108" y="253" type="curve" smooth="yes"/>
      <point x="108" y="367"/>
      <point x="194" y="447"/>
      <point x="318" y="447" type="curve" smooth="yes"/>
      <point x="419" y="447"/>
      <point x="486" y="377"/>
      <point x="486" y="273" type="curve" smooth="yes"/>
      <point x="486" y="156"/>
      <point x="402" y="75"/>
      <point x="282" y="75" type="curve" smooth="yes"/>
    </contour>
    <component base="fraction" xOffset="269" yOffset="11"/>
  </outline>
</glyph>
<glyph name="summation" format="1">
  <advance width="515"/>
  <unicode hex="2211"/>
  <outline>
    <contour>
      <point x="440" y="30"/>
      <point x="446" y="61"/>
      <point x="444" y="101" type="curve"/>
      <point x="395" y="89"/>
      <point x="325" y="82"/>
      <point x="260" y="82" type="curve" smooth="yes"/>
      <point x="213" y="82"/>
      <point x="172" y="83"/>
      <point x="147" y="85" type="curve"/>
      <point x="395" y="283" type="line"/>
      <point x="342" y="324"/>
      <point x="291" y="377"/>
      <point x="227" y="460" type="curve"/>
      <point x="311" y="460"/>
      <point x="356" y="459"/>
      <point x="441" y="455" type="curve"/>
      <point x="456" y="490"/>
      <point x="462" y="521"/>
      <point x="460" y="561" type="curve"/>
      <point x="411" y="549"/>
      <point x="341" y="542"/>
      <point x="276" y="542" type="curve" smooth="yes"/>
      <point x="206" y="542"/>
      <point x="160" y="543"/>
      <point x="91" y="547" type="curve"/>
      <point x="76" y="510"/>
      <point x="70" y="478"/>
      <point x="72" y="441" type="curve"/>
      <point x="123" y="406"/>
      <point x="149" y="378"/>
      <point x="253" y="250" type="curve"/>
      <point x="157" y="178"/>
      <point x="91" y="120"/>
      <point x="65" y="83" type="curve"/>
      <point x="57" y="59"/>
      <point x="53" y="31"/>
      <point x="55" y="0" type="curve"/>
      <point x="241" y="0" type="line" smooth="yes"/>
      <point x="310" y="0"/>
      <point x="356" y="-1"/>
      <point x="425" y="-5" type="curve"/>
    </contour>
  </outline>
</glyph>
<glyph name="radical" format="1">
  <advance width="455"/>
  <unicode hex="221A"/>
  <outline>
    <contour>
      <point x="287" y="27" type="line"/>
      <point x="336" y="199"/>
      <point x="428" y="495"/>
      <point x="481" y="647" type="curve"/>
      <point x="444" y="647"/>
      <point x="417" y="644"/>
      <point x="387" y="636" type="curve"/>
      <point x="403" y="593"/>
      <point x="359" y="428"/>
      <point x="245" y="86" type="curve"/>
      <point x="225" y="131"/>
      <point x="208" y="207"/>
      <point x="182" y="333" type="curve"/>
      <point x="131" y="333"/>
      <point x="91" y="326"/>
      <point x="50" y="312" type="curve"/>
      <point x="133" y="167"/>
      <point x="126" y="-9"/>
      <point x="218" y="-9" type="curve"/>
    </contour>
  </outline>
</glyph>
<glyph name="infinity" format="1">
  <advance width="633"/>
  <unicode hex="221E"/>
  <outline>
    <contour>
      <point x="232" y="59"/>
      <point x="276" y="99"/>
      <point x="304" y="166" type="curve"/>
      <point x="328" y="108"/>
      <point x="364" y="59"/>
      <point x="439" y="59" type="curve" smooth="yes"/>
      <point x="524" y="59"/>
      <point x="583" y="151"/>
      <point x="583" y="282" type="curve" smooth="yes"/>
      <point x="583" y="390"/>
      <point x="531" y="463"/>
      <point x="452" y="463" type="curve" smooth="yes"/>
      <point x="403" y="463"/>
      <point x="360" y="426"/>
      <point x="333" y="364" type="curve"/>
      <point x="307" y="419"/>
      <point x="268" y="463"/>
      <point x="195" y="463" type="curve" smooth="yes"/>
      <point x="110" y="463"/>
      <point x="50" y="371"/>
      <point x="50" y="240" type="curve" smooth="yes"/>
      <point x="50" y="132"/>
      <point x="102" y="59"/>
      <point x="181" y="59" type="curve" smooth="yes"/>
    </contour>
    <contour>
      <point x="140" y="155"/>
      <point x="106" y="187"/>
      <point x="96" y="241" type="curve"/>
      <point x="96" y="314"/>
      <point x="126" y="367"/>
      <point x="176" y="367" type="curve" smooth="yes"/>
      <point x="239" y="367"/>
      <point x="259" y="296"/>
      <point x="284" y="222" type="curve"/>
      <point x="262" y="179"/>
      <point x="229" y="155"/>
      <point x="188" y="155" type="curve" smooth="yes"/>
    </contour>
    <contour>
      <point x="398" y="155"/>
      <point x="381" y="232"/>
      <point x="354" y="309" type="curve"/>
      <point x="376" y="346"/>
      <point x="407" y="367"/>
      <point x="445" y="367" type="curve" smooth="yes"/>
      <point x="493" y="367"/>
      <point x="527" y="335"/>
      <point x="537" y="281" type="curve"/>
      <point x="537" y="208"/>
      <point x="507" y="155"/>
      <point x="457" y="155" type="curve" smooth="yes"/>
    </contour>
  </outline>
</glyph>
<glyph name="f_t" format="1">
  <advance width="580"/>
  <outline>
    <contour>
      <point x="169" y="-78"/>
      <point x="195" y="-34"/>
      <point x="195" y="63" type="curve"/>
      <point x="195" y="134"/>
      <point x="188" y="153"/>
      <point x="188" y="343" type="curve"/>
      <point x="369" y="343" type="line"/>
      <point x="370" y="326"/>
      <point x="371" y="308"/>
      <point x="371" y="297" type="curve" smooth="yes"/>
      <point x="371" y="208"/>
      <point x="367" y="144"/>
      <point x="367" y="73" type="curve" smooth="yes"/>
      <point x="367" y="13"/>
      <point x="385" y="-9"/>
      <point x="434" y="-9" type="curve" smooth="yes"/>
      <point x="479" y="-9"/>
      <point x="527" y="16"/>
      <point x="552" y="53" type="curve"/>
      <point x="546" y="79" type="line"/>
      <point x="523" y="73"/>
      <point x="497" y="70"/>
      <point x="471" y="69" type="curve"/>
      <point x="462" y="109"/>
      <point x="457" y="172"/>
      <point x="457" y="252" type="curve" smooth="yes"/>
      <point x="457" y="284"/>
      <point x="458" y="314"/>
      <point x="460" y="343" type="curve"/>
      <point x="497" y="342"/>
      <point x="524" y="338"/>
      <point x="543" y="331" type="curve"/>
      <point x="555" y="356"/>
      <point x="560" y="376"/>
      <point x="560" y="404" type="curve"/>
      <point x="538" y="400"/>
      <point x="503" y="397"/>
      <point x="462" y="396" type="curve"/>
      <point x="461" y="416"/>
      <point x="459" y="442"/>
      <point x="457" y="466" type="curve"/>
      <point x="428" y="469" type="line"/>
      <point x="397" y="415"/>
      <point x="346" y="397"/>
      <point x="301" y="397" type="curve" smooth="yes"/>
      <point x="190" y="397" type="line"/>
      <point x="193" y="486"/>
      <point x="201" y="520"/>
      <point x="223" y="536" type="curve"/>
      <point x="251" y="536"/>
      <point x="296" y="512"/>
      <point x="337" y="475" type="curve"/>
      <point x="352" y="503"/>
      <point x="366" y="549"/>
      <point x="366" y="571" type="curve"/>
      <point x="336" y="580"/>
      <point x="303" y="585"/>
      <point x="270" y="585" type="curve" smooth="yes"/>
      <point x="178" y="585"/>
      <point x="110" y="514"/>
      <point x="94" y="403" type="curve"/>
      <point x="76" y="391"/>
      <point x="58" y="380"/>
      <point x="35" y="368" type="curve"/>
      <point x="35" y="346"/>
      <point x="46" y="341"/>
      <point x="94" y="340" type="curve"/>
      <point x="109" y="-31"/>
      <point x="105" y="-75"/>
      <point x="50" y="-146" type="curve"/>
      <point x="64" y="-159" type="line"/>
    </contour>
  </outline>
</glyph>
<glyph name="five.dnom" format="1">
  <advance width="350"/>
  <outline>
    <contour>
      <point x="242" y="-6"/>
      <point x="286" y="26"/>
      <point x="286" y="85" type="curve" smooth="yes"/>
      <point x="286" y="134"/>
      <point x="243" y="171"/>
      <point x="188" y="171" type="curve" smooth="yes"/>
      <point x="159" y="171"/>
      <point x="132" y="163"/>
      <point x="110" y="148" type="curve"/>
      <point x="115" y="208" type="line"/>
      <point x="201" y="208" type="line" smooth="yes"/>
      <point x="231" y="208"/>
      <point x="247" y="206"/>
      <point x="259" y="199" type="curve"/>
      <point x="269" y="218"/>
      <point x="275" y="249"/>
      <point x="275" y="274" type="curve"/>
      <point x="257" y="270"/>
      <point x="218" y="268"/>
      <point x="174" y="268" type="curve" smooth="yes"/>
      <point x="128" y="268"/>
      <point x="103" y="270"/>
      <point x="89" y="274" type="curve"/>
      <point x="78" y="124" type="line"/>
      <point x="108" y="109" type="line"/>
      <point x="133" y="126"/>
      <point x="158" y="135"/>
      <point x="174" y="135" type="curve"/>
      <point x="206" y="124"/>
      <point x="218" y="109"/>
      <point x="218" y="85" type="curve" smooth="yes"/>
      <point x="218" y="53"/>
      <point x="193" y="34"/>
      <point x="151" y="34" type="curve" smooth="yes"/>
      <point x="117" y="34"/>
      <point x="86" y="46"/>
      <point x="68" y="66" type="curve"/>
      <point x="62" y="50"/>
      <point x="59" y="37"/>
      <point x="59" y="18" type="curve"/>
      <point x="87" y="3"/>
      <point x="122" y="-6"/>
      <point x="159" y="-6" type="curve" smooth="yes"/>
    </contour>
  </outline>
</glyph>
<glyph name="four.dnom" format="1">
  <advance width="350"/>
  <outline>
    <contour>
      <point x="250" y="-3"/>
      <point x="262" y="-2"/>
      <point x="272" y="0" type="curve"/>
      <point x="270" y="18"/>
      <point x="268" y="38"/>
      <point x="268" y="56" type="curve"/>
      <point x="288" y="56" type="line"/>
      <point x="297" y="74"/>
      <point x="303" y="99"/>
      <point x="303" y="120" type="curve"/>
      <point x="295" y="117"/>
      <point x="279" y="115"/>
      <point x="266" y="113" type="curve"/>
      <point x="266" y="178" type="line"/>
      <point x="253" y="180"/>
      <point x="241" y="181"/>
      <point x="230" y="181" type="curve"/>
      <point x="197" y="111" type="line"/>
      <point x="107" y="111" type="line"/>
      <point x="166" y="194"/>
      <point x="216" y="245"/>
      <point x="244" y="268" type="curve"/>
      <point x="219" y="280"/>
      <point x="194" y="284"/>
      <point x="162" y="284" type="curve"/>
      <point x="101" y="201"/>
      <point x="47" y="114"/>
      <point x="47" y="80" type="curve" smooth="yes"/>
      <point x="47" y="65"/>
      <point x="53" y="54"/>
      <point x="63" y="46" type="curve"/>
      <point x="86" y="54"/>
      <point x="112" y="57"/>
      <point x="197" y="57" type="curve"/>
      <point x="197" y="38"/>
      <point x="196" y="18"/>
      <point x="195" y="0" type="curve"/>
      <point x="211" y="-2"/>
      <point x="226" y="-3"/>
      <point x="239" y="-3" type="curve" smooth="yes"/>
    </contour>
  </outline>
</glyph>
<glyph name="nine.dnom" format="1">
  <advance width="348"/>
  <outline>
    <contour>
      <point x="243" y="-6"/>
      <point x="297" y="51"/>
      <point x="297" y="151" type="curve" smooth="yes"/>
      <point x="297" y="227"/>
      <point x="247" y="277"/>
      <point x="171" y="277" type="curve" smooth="yes"/>
      <point x="102" y="277"/>
      <point x="53" y="235"/>
      <point x="53" y="175" type="curve" smooth="yes"/>
      <point x="53" y="121"/>
      <point x="92" y="85"/>
      <point x="151" y="85" type="curve" smooth="yes"/>
      <point x="178" y="85"/>
      <point x="203" y="93"/>
      <point x="226" y="110" type="curve"/>
      <point x="221" y="59"/>
      <point x="194" y="34"/>
      <point x="147" y="34" type="curve" smooth="yes"/>
      <point x="112" y="34"/>
      <point x="81" y="46"/>
      <point x="65" y="66" type="curve"/>
      <point x="58" y="46"/>
      <point x="55" y="33"/>
      <point x="55" y="18" type="curve"/>
      <point x="82" y="2"/>
      <point x="114" y="-6"/>
      <point x="146" y="-6" type="curve" smooth="yes"/>
    </contour>
    <contour>
      <point x="144" y="122"/>
      <point x="123" y="143"/>
      <point x="123" y="176" type="curve" smooth="yes"/>
      <point x="123" y="208"/>
      <point x="142" y="229"/>
      <point x="171" y="229" type="curve" smooth="yes"/>
      <point x="204" y="229"/>
      <point x="223" y="200"/>
      <point x="226" y="147" type="curve"/>
      <point x="212" y="135"/>
      <point x="195" y="127"/>
      <point x="178" y="122" type="curve"/>
    </contour>
  </outline>
</glyph>
<glyph name="six.dnom" format="1">
  <advance width="350"/>
  <outline>
    <contour>
      <point x="244" y="-5"/>
      <point x="297" y="33"/>
      <point x="297" y="87" type="curve" smooth="yes"/>
      <point x="297" y="141"/>
      <point x="255" y="177"/>
      <point x="194" y="177" type="curve" smooth="yes"/>
      <point x="167" y="177"/>
      <point x="142" y="169"/>
      <point x="120" y="154" type="curve"/>
      <point x="128" y="194"/>
      <point x="148" y="220"/>
      <point x="180" y="230" type="curve"/>
      <point x="198" y="230"/>
      <point x="231" y="214"/>
      <point x="257" y="193" type="curve"/>
      <point x="271" y="207"/>
      <point x="283" y="242"/>
      <point x="283" y="265" type="curve"/>
      <point x="264" y="273"/>
      <point x="237" y="277"/>
      <point x="207" y="277" type="curve" smooth="yes"/>
      <point x="113" y="277"/>
      <point x="47" y="225"/>
      <point x="47" y="126" type="curve" smooth="yes"/>
      <point x="47" y="48"/>
      <point x="97" y="-5"/>
      <point x="171" y="-5" type="curve" smooth="yes"/>
    </contour>
    <contour>
      <point x="138" y="34"/>
      <point x="116" y="66"/>
      <point x="116" y="116" type="curve"/>
      <point x="130" y="127"/>
      <point x="147" y="135"/>
      <point x="165" y="140" type="curve"/>
      <point x="202" y="140"/>
      <point x="227" y="120"/>
      <point x="227" y="89" type="curve" smooth="yes"/>
      <point x="227" y="56"/>
      <point x="207" y="34"/>
      <point x="176" y="34" type="curve" smooth="yes"/>
    </contour>
  </outline>
</glyph>
<glyph name="three.dnom" format="1">
  <advance width="350"/>
  <outline>
    <contour>
      <point x="244" y="-6"/>
      <point x="289" y="25"/>
      <point x="289" y="83" type="curve" smooth="yes"/>
      <point x="289" y="122"/>
      <point x="254" y="155"/>
      <point x="204" y="162" type="curve"/>
      <point x="259" y="198"/>
      <point x="281" y="214"/>
      <point x="281" y="245" type="curve" smooth="yes"/>
      <point x="281" y="260"/>
      <point x="273" y="275"/>
      <point x="261" y="284" type="curve"/>
      <point x="240" y="273"/>
      <point x="209" y="268"/>
      <point x="154" y="268" type="curve" smooth="yes"/>
      <point x="113" y="268"/>
      <point x="80" y="270"/>
      <point x="65" y="274" type="curve"/>
      <point x="65" y="249"/>
      <point x="71" y="218"/>
      <point x="80" y="199" type="curve"/>
      <point x="93" y="206"/>
      <point x="110" y="208"/>
      <point x="140" y="208" type="curve" smooth="yes"/>
      <point x="223" y="208" type="line"/>
      <point x="137" y="150" type="line" smooth="yes"/>
      <point x="122" y="140"/>
      <point x="115" y="130"/>
      <point x="112" y="122" type="curve"/>
      <point x="112" y="116"/>
      <point x="129" y="107"/>
      <point x="140" y="107" type="curve"/>
      <point x="149" y="120"/>
      <point x="166" y="130"/>
      <point x="179" y="130" type="curve"/>
      <point x="206" y="122"/>
      <point x="221" y="104"/>
      <point x="221" y="82" type="curve" smooth="yes"/>
      <point x="221" y="51"/>
      <point x="196" y="34"/>
      <point x="151" y="34" type="curve" smooth="yes"/>
      <point x="115" y="34"/>
      <point x="83" y="46"/>
      <point x="65" y="66" type="curve"/>
      <point x="58" y="48"/>
      <point x="55" y="34"/>
      <point x="55" y="18" type="curve"/>
      <point x="84" y="3"/>
      <point x="120" y="-6"/>
      <point x="159" y="-6" type="curve" smooth="yes"/>
    </contour>
  </outline>
</glyph>
